<mxfile host="drawio.yandex-team.ru" modified="2020-04-20T16:50:22.627Z" agent="Mozilla/5.0 (Macintosh; Intel Mac OS X 10.14; rv:74.0) Gecko/20100101 Firefox/74.0" etag="lC2-rzekXhxzKeN2AccN" version="12.7.0" type="github" pages="7">
  <diagram id="bfglIyK0Sk2xyj4MdM4o" name="Page-1">
    <mxGraphModel dx="2036" dy="779" grid="1" gridSize="10" guides="1" tooltips="1" connect="1" arrows="1" fold="1" page="1" pageScale="1" pageWidth="850" pageHeight="1100" math="0" shadow="0">
      <root>
        <mxCell id="0"/>
        <mxCell id="1" parent="0"/>
        <mxCell id="86sGiJdfHTjYPmIvWcyB-2" value="&amp;nbsp;jupyter.yandex-team.ru" style="rounded=0;whiteSpace=wrap;html=1;verticalAlign=top;align=left;fillColor=#f5f5f5;strokeColor=#666666;fontColor=#333333;" parent="1" vertex="1">
          <mxGeometry x="120" y="900" width="260" height="140" as="geometry"/>
        </mxCell>
        <mxCell id="86sGiJdfHTjYPmIvWcyB-5" value="yandex-spyt" style="rounded=0;whiteSpace=wrap;html=1;align=left;fillColor=#d5e8d4;strokeColor=#82b366;" parent="1" vertex="1">
          <mxGeometry x="140" y="990" width="220" height="30" as="geometry"/>
        </mxCell>
        <mxCell id="86sGiJdfHTjYPmIvWcyB-1" value="&amp;nbsp;YT Vanilla" style="rounded=0;whiteSpace=wrap;html=1;verticalAlign=top;align=left;fillColor=#f5f5f5;strokeColor=#666666;fontColor=#333333;" parent="1" vertex="1">
          <mxGeometry x="120" y="790" width="260" height="80" as="geometry"/>
        </mxCell>
        <mxCell id="86sGiJdfHTjYPmIvWcyB-14" value="" style="group" parent="1" vertex="1" connectable="0">
          <mxGeometry x="140" y="820" width="220" height="30" as="geometry"/>
        </mxCell>
        <mxCell id="86sGiJdfHTjYPmIvWcyB-3" value="spark + yt-data-source + spyt.zip" style="rounded=0;whiteSpace=wrap;html=1;align=left;fillColor=#d5e8d4;strokeColor=#82b366;" parent="86sGiJdfHTjYPmIvWcyB-14" vertex="1">
          <mxGeometry width="220" height="30" as="geometry"/>
        </mxCell>
        <mxCell id="86sGiJdfHTjYPmIvWcyB-13" value="" style="rounded=0;whiteSpace=wrap;html=1;align=left;fillColor=#60a917;strokeColor=#2D7600;fontColor=#ffffff;" parent="86sGiJdfHTjYPmIvWcyB-14" vertex="1">
          <mxGeometry x="180" width="40" height="30" as="geometry"/>
        </mxCell>
        <mxCell id="86sGiJdfHTjYPmIvWcyB-15" value="" style="group;fillColor=#ffe6cc;strokeColor=#d79b00;" parent="1" vertex="1" connectable="0">
          <mxGeometry x="140" y="940" width="220" height="30" as="geometry"/>
        </mxCell>
        <mxCell id="86sGiJdfHTjYPmIvWcyB-18" value="" style="endArrow=classic;startArrow=classic;html=1;exitX=0.5;exitY=0;exitDx=0;exitDy=0;entryX=0.5;entryY=1;entryDx=0;entryDy=0;" parent="1" source="86sGiJdfHTjYPmIvWcyB-17" target="86sGiJdfHTjYPmIvWcyB-13" edge="1">
          <mxGeometry width="50" height="50" relative="1" as="geometry">
            <mxPoint x="570" y="860" as="sourcePoint"/>
            <mxPoint x="620" y="810" as="targetPoint"/>
          </mxGeometry>
        </mxCell>
        <mxCell id="86sGiJdfHTjYPmIvWcyB-19" value="&amp;nbsp;YT Storage" style="rounded=0;whiteSpace=wrap;html=1;align=left;verticalAlign=top;" parent="1" vertex="1">
          <mxGeometry x="-60" y="790" width="160" height="80" as="geometry"/>
        </mxCell>
        <mxCell id="86sGiJdfHTjYPmIvWcyB-20" value="spark.tgz" style="rounded=0;whiteSpace=wrap;html=1;align=left;fillColor=#dae8fc;strokeColor=#6c8ebf;" parent="1" vertex="1">
          <mxGeometry x="-40" y="820" width="120" height="30" as="geometry"/>
        </mxCell>
        <mxCell id="86sGiJdfHTjYPmIvWcyB-21" value="" style="endArrow=classic;html=1;exitX=1;exitY=0.5;exitDx=0;exitDy=0;entryX=0;entryY=0.5;entryDx=0;entryDy=0;dashed=1;dashPattern=1 1;" parent="1" source="86sGiJdfHTjYPmIvWcyB-20" target="86sGiJdfHTjYPmIvWcyB-3" edge="1">
          <mxGeometry width="50" height="50" relative="1" as="geometry">
            <mxPoint x="-80" y="970" as="sourcePoint"/>
            <mxPoint x="-30" y="920" as="targetPoint"/>
          </mxGeometry>
        </mxCell>
        <mxCell id="86sGiJdfHTjYPmIvWcyB-22" value="deb yandex-taxi-common" style="rounded=0;whiteSpace=wrap;html=1;align=left;" parent="1" vertex="1">
          <mxGeometry x="-60" y="920" width="160" height="50" as="geometry"/>
        </mxCell>
        <mxCell id="86sGiJdfHTjYPmIvWcyB-23" value="pypi.yandex-team.ru" style="rounded=0;whiteSpace=wrap;html=1;align=left;" parent="1" vertex="1">
          <mxGeometry x="-60" y="990" width="160" height="50" as="geometry"/>
        </mxCell>
        <mxCell id="86sGiJdfHTjYPmIvWcyB-24" value="" style="endArrow=classic;html=1;dashed=1;dashPattern=1 1;exitX=1;exitY=0.5;exitDx=0;exitDy=0;entryX=0;entryY=0.5;entryDx=0;entryDy=0;" parent="1" source="86sGiJdfHTjYPmIvWcyB-22" target="86sGiJdfHTjYPmIvWcyB-16" edge="1">
          <mxGeometry width="50" height="50" relative="1" as="geometry">
            <mxPoint x="-60" y="740" as="sourcePoint"/>
            <mxPoint x="-10" y="690" as="targetPoint"/>
          </mxGeometry>
        </mxCell>
        <mxCell id="86sGiJdfHTjYPmIvWcyB-25" value="" style="endArrow=classic;html=1;dashed=1;dashPattern=1 1;exitX=1;exitY=0.5;exitDx=0;exitDy=0;entryX=0;entryY=0.5;entryDx=0;entryDy=0;" parent="1" source="86sGiJdfHTjYPmIvWcyB-23" target="86sGiJdfHTjYPmIvWcyB-5" edge="1">
          <mxGeometry width="50" height="50" relative="1" as="geometry">
            <mxPoint x="90" y="610" as="sourcePoint"/>
            <mxPoint x="140" y="560" as="targetPoint"/>
          </mxGeometry>
        </mxCell>
        <mxCell id="86sGiJdfHTjYPmIvWcyB-27" value="" style="endArrow=classic;html=1;exitX=0.5;exitY=0;exitDx=0;exitDy=0;entryX=0.5;entryY=1;entryDx=0;entryDy=0;" parent="1" source="86sGiJdfHTjYPmIvWcyB-5" target="86sGiJdfHTjYPmIvWcyB-16" edge="1">
          <mxGeometry width="50" height="50" relative="1" as="geometry">
            <mxPoint x="246" y="980" as="sourcePoint"/>
            <mxPoint x="140" y="610" as="targetPoint"/>
          </mxGeometry>
        </mxCell>
        <mxCell id="86sGiJdfHTjYPmIvWcyB-16" value="spark + yt-data-source" style="rounded=0;whiteSpace=wrap;html=1;align=left;fillColor=#d5e8d4;strokeColor=#82b366;" parent="1" vertex="1">
          <mxGeometry x="140" y="940" width="220" height="30" as="geometry"/>
        </mxCell>
        <mxCell id="86sGiJdfHTjYPmIvWcyB-17" value="" style="rounded=0;whiteSpace=wrap;html=1;align=left;fillColor=#60a917;strokeColor=#2D7600;fontColor=#ffffff;" parent="1" vertex="1">
          <mxGeometry x="320" y="940" width="40" height="30" as="geometry"/>
        </mxCell>
        <mxCell id="86sGiJdfHTjYPmIvWcyB-69" value="&amp;nbsp;jupyter.yandex-team.ru" style="rounded=0;whiteSpace=wrap;html=1;verticalAlign=top;align=left;fillColor=#f5f5f5;strokeColor=#666666;fontColor=#333333;" parent="1" vertex="1">
          <mxGeometry x="120" y="1200" width="260" height="140" as="geometry"/>
        </mxCell>
        <mxCell id="86sGiJdfHTjYPmIvWcyB-70" value="yandex-spyt" style="rounded=0;whiteSpace=wrap;html=1;align=left;fillColor=#d5e8d4;strokeColor=#82b366;" parent="1" vertex="1">
          <mxGeometry x="140" y="1290" width="220" height="30" as="geometry"/>
        </mxCell>
        <mxCell id="86sGiJdfHTjYPmIvWcyB-71" value="&amp;nbsp;YT Vanilla" style="rounded=0;whiteSpace=wrap;html=1;verticalAlign=top;align=left;fillColor=#f5f5f5;strokeColor=#666666;fontColor=#333333;" parent="1" vertex="1">
          <mxGeometry x="120" y="1090" width="260" height="80" as="geometry"/>
        </mxCell>
        <mxCell id="86sGiJdfHTjYPmIvWcyB-72" value="" style="group" parent="1" vertex="1" connectable="0">
          <mxGeometry x="140" y="1120" width="220" height="30" as="geometry"/>
        </mxCell>
        <mxCell id="86sGiJdfHTjYPmIvWcyB-73" value="spark + yt-data-source + spyt.zip" style="rounded=0;whiteSpace=wrap;html=1;align=left;fillColor=#d5e8d4;strokeColor=#82b366;" parent="86sGiJdfHTjYPmIvWcyB-72" vertex="1">
          <mxGeometry width="220" height="30" as="geometry"/>
        </mxCell>
        <mxCell id="86sGiJdfHTjYPmIvWcyB-74" value="" style="rounded=0;whiteSpace=wrap;html=1;align=left;fillColor=#60a917;strokeColor=#2D7600;fontColor=#ffffff;" parent="86sGiJdfHTjYPmIvWcyB-72" vertex="1">
          <mxGeometry x="180" width="40" height="30" as="geometry"/>
        </mxCell>
        <mxCell id="86sGiJdfHTjYPmIvWcyB-75" value="" style="group;fillColor=#ffe6cc;strokeColor=#d79b00;" parent="1" vertex="1" connectable="0">
          <mxGeometry x="140" y="1240" width="220" height="30" as="geometry"/>
        </mxCell>
        <mxCell id="86sGiJdfHTjYPmIvWcyB-78" value="" style="endArrow=classic;startArrow=classic;html=1;exitX=0.5;exitY=0;exitDx=0;exitDy=0;entryX=0.5;entryY=1;entryDx=0;entryDy=0;" parent="1" source="86sGiJdfHTjYPmIvWcyB-77" target="86sGiJdfHTjYPmIvWcyB-74" edge="1">
          <mxGeometry width="50" height="50" relative="1" as="geometry">
            <mxPoint x="570" y="1160" as="sourcePoint"/>
            <mxPoint x="620" y="1110" as="targetPoint"/>
          </mxGeometry>
        </mxCell>
        <mxCell id="86sGiJdfHTjYPmIvWcyB-79" value="&amp;nbsp;YT Storage" style="rounded=0;whiteSpace=wrap;html=1;align=left;verticalAlign=top;" parent="1" vertex="1">
          <mxGeometry x="-60" y="1090" width="160" height="80" as="geometry"/>
        </mxCell>
        <mxCell id="86sGiJdfHTjYPmIvWcyB-80" value="spark.tgz" style="rounded=0;whiteSpace=wrap;html=1;align=left;fillColor=#dae8fc;strokeColor=#6c8ebf;" parent="1" vertex="1">
          <mxGeometry x="-40" y="1120" width="120" height="30" as="geometry"/>
        </mxCell>
        <mxCell id="86sGiJdfHTjYPmIvWcyB-81" value="" style="endArrow=classic;html=1;exitX=1;exitY=0.5;exitDx=0;exitDy=0;entryX=0;entryY=0.5;entryDx=0;entryDy=0;dashed=1;dashPattern=1 1;" parent="1" source="86sGiJdfHTjYPmIvWcyB-80" target="86sGiJdfHTjYPmIvWcyB-73" edge="1">
          <mxGeometry width="50" height="50" relative="1" as="geometry">
            <mxPoint x="-80" y="1270" as="sourcePoint"/>
            <mxPoint x="-30" y="1220" as="targetPoint"/>
          </mxGeometry>
        </mxCell>
        <mxCell id="86sGiJdfHTjYPmIvWcyB-82" value="deb yandex-taxi-common" style="rounded=0;whiteSpace=wrap;html=1;align=left;" parent="1" vertex="1">
          <mxGeometry x="-60" y="1220" width="160" height="50" as="geometry"/>
        </mxCell>
        <mxCell id="86sGiJdfHTjYPmIvWcyB-83" value="pypi.yandex-team.ru" style="rounded=0;whiteSpace=wrap;html=1;align=left;" parent="1" vertex="1">
          <mxGeometry x="-60" y="1290" width="160" height="50" as="geometry"/>
        </mxCell>
        <mxCell id="86sGiJdfHTjYPmIvWcyB-84" value="" style="endArrow=classic;html=1;dashed=1;dashPattern=1 1;exitX=1;exitY=0.5;exitDx=0;exitDy=0;entryX=0;entryY=0.5;entryDx=0;entryDy=0;" parent="1" source="86sGiJdfHTjYPmIvWcyB-82" target="86sGiJdfHTjYPmIvWcyB-76" edge="1">
          <mxGeometry width="50" height="50" relative="1" as="geometry">
            <mxPoint x="-60" y="1040" as="sourcePoint"/>
            <mxPoint x="-10" y="990" as="targetPoint"/>
          </mxGeometry>
        </mxCell>
        <mxCell id="86sGiJdfHTjYPmIvWcyB-85" value="" style="endArrow=classic;html=1;dashed=1;dashPattern=1 1;exitX=1;exitY=0.5;exitDx=0;exitDy=0;entryX=0;entryY=0.5;entryDx=0;entryDy=0;" parent="1" source="86sGiJdfHTjYPmIvWcyB-83" target="86sGiJdfHTjYPmIvWcyB-70" edge="1">
          <mxGeometry width="50" height="50" relative="1" as="geometry">
            <mxPoint x="90" y="910" as="sourcePoint"/>
            <mxPoint x="140" y="860" as="targetPoint"/>
          </mxGeometry>
        </mxCell>
        <mxCell id="86sGiJdfHTjYPmIvWcyB-86" value="" style="endArrow=classic;html=1;exitX=0.5;exitY=0;exitDx=0;exitDy=0;entryX=0.5;entryY=1;entryDx=0;entryDy=0;" parent="1" source="86sGiJdfHTjYPmIvWcyB-70" target="86sGiJdfHTjYPmIvWcyB-76" edge="1">
          <mxGeometry width="50" height="50" relative="1" as="geometry">
            <mxPoint x="246" y="1280" as="sourcePoint"/>
            <mxPoint x="140" y="910" as="targetPoint"/>
          </mxGeometry>
        </mxCell>
        <mxCell id="86sGiJdfHTjYPmIvWcyB-76" value="spark + yt-data-source" style="rounded=0;whiteSpace=wrap;html=1;align=left;fillColor=#ffe6cc;strokeColor=#d79b00;" parent="1" vertex="1">
          <mxGeometry x="140" y="1240" width="220" height="30" as="geometry"/>
        </mxCell>
        <mxCell id="86sGiJdfHTjYPmIvWcyB-77" value="" style="rounded=0;whiteSpace=wrap;html=1;align=left;fillColor=#e51400;strokeColor=#B20000;fontColor=#ffffff;" parent="1" vertex="1">
          <mxGeometry x="320" y="1240" width="40" height="30" as="geometry"/>
        </mxCell>
        <mxCell id="86sGiJdfHTjYPmIvWcyB-87" value="&amp;nbsp;jupyter.yandex-team.ru" style="rounded=0;whiteSpace=wrap;html=1;verticalAlign=top;align=left;fillColor=#f5f5f5;strokeColor=#666666;fontColor=#333333;" parent="1" vertex="1">
          <mxGeometry x="120" y="1490" width="260" height="140" as="geometry"/>
        </mxCell>
        <mxCell id="86sGiJdfHTjYPmIvWcyB-88" value="yandex-spyt" style="rounded=0;whiteSpace=wrap;html=1;align=left;fillColor=#ffe6cc;strokeColor=#d79b00;" parent="1" vertex="1">
          <mxGeometry x="140" y="1580" width="220" height="30" as="geometry"/>
        </mxCell>
        <mxCell id="86sGiJdfHTjYPmIvWcyB-89" value="&amp;nbsp;YT Vanilla" style="rounded=0;whiteSpace=wrap;html=1;verticalAlign=top;align=left;fillColor=#f5f5f5;strokeColor=#666666;fontColor=#333333;" parent="1" vertex="1">
          <mxGeometry x="120" y="1380" width="260" height="80" as="geometry"/>
        </mxCell>
        <mxCell id="86sGiJdfHTjYPmIvWcyB-90" value="" style="group;fillColor=#60a917;strokeColor=#2D7600;fontColor=#ffffff;" parent="1" vertex="1" connectable="0">
          <mxGeometry x="140" y="1410" width="220" height="30" as="geometry"/>
        </mxCell>
        <mxCell id="86sGiJdfHTjYPmIvWcyB-91" value="spark + yt-data-source + spyt.zip" style="rounded=0;whiteSpace=wrap;html=1;align=left;fillColor=#d5e8d4;strokeColor=#82b366;" parent="86sGiJdfHTjYPmIvWcyB-90" vertex="1">
          <mxGeometry width="220" height="30" as="geometry"/>
        </mxCell>
        <mxCell id="86sGiJdfHTjYPmIvWcyB-92" value="" style="rounded=0;whiteSpace=wrap;html=1;align=left;fillColor=#60a917;strokeColor=#2D7600;fontColor=#ffffff;" parent="86sGiJdfHTjYPmIvWcyB-90" vertex="1">
          <mxGeometry x="180" width="40" height="30" as="geometry"/>
        </mxCell>
        <mxCell id="86sGiJdfHTjYPmIvWcyB-93" value="" style="group;fillColor=#ffe6cc;strokeColor=#d79b00;" parent="1" vertex="1" connectable="0">
          <mxGeometry x="140" y="1530" width="220" height="30" as="geometry"/>
        </mxCell>
        <mxCell id="86sGiJdfHTjYPmIvWcyB-94" value="" style="endArrow=classic;startArrow=classic;html=1;exitX=0.5;exitY=0;exitDx=0;exitDy=0;entryX=0.5;entryY=1;entryDx=0;entryDy=0;" parent="1" source="86sGiJdfHTjYPmIvWcyB-104" target="86sGiJdfHTjYPmIvWcyB-92" edge="1">
          <mxGeometry width="50" height="50" relative="1" as="geometry">
            <mxPoint x="570" y="1450" as="sourcePoint"/>
            <mxPoint x="620" y="1400" as="targetPoint"/>
          </mxGeometry>
        </mxCell>
        <mxCell id="86sGiJdfHTjYPmIvWcyB-95" value="&amp;nbsp;YT Storage" style="rounded=0;whiteSpace=wrap;html=1;align=left;verticalAlign=top;" parent="1" vertex="1">
          <mxGeometry x="-60" y="1380" width="160" height="80" as="geometry"/>
        </mxCell>
        <mxCell id="86sGiJdfHTjYPmIvWcyB-96" value="spark.tgz" style="rounded=0;whiteSpace=wrap;html=1;align=left;fillColor=#dae8fc;strokeColor=#6c8ebf;" parent="1" vertex="1">
          <mxGeometry x="-40" y="1410" width="120" height="30" as="geometry"/>
        </mxCell>
        <mxCell id="86sGiJdfHTjYPmIvWcyB-97" value="" style="endArrow=classic;html=1;exitX=1;exitY=0.5;exitDx=0;exitDy=0;entryX=0;entryY=0.5;entryDx=0;entryDy=0;dashed=1;dashPattern=1 1;" parent="1" source="86sGiJdfHTjYPmIvWcyB-96" target="86sGiJdfHTjYPmIvWcyB-91" edge="1">
          <mxGeometry width="50" height="50" relative="1" as="geometry">
            <mxPoint x="-80" y="1560" as="sourcePoint"/>
            <mxPoint x="-30" y="1510" as="targetPoint"/>
          </mxGeometry>
        </mxCell>
        <mxCell id="86sGiJdfHTjYPmIvWcyB-98" value="deb yandex-taxi-common" style="rounded=0;whiteSpace=wrap;html=1;align=left;" parent="1" vertex="1">
          <mxGeometry x="-60" y="1510" width="160" height="50" as="geometry"/>
        </mxCell>
        <mxCell id="86sGiJdfHTjYPmIvWcyB-99" value="pypi.yandex-team.ru" style="rounded=0;whiteSpace=wrap;html=1;align=left;" parent="1" vertex="1">
          <mxGeometry x="-60" y="1580" width="160" height="50" as="geometry"/>
        </mxCell>
        <mxCell id="86sGiJdfHTjYPmIvWcyB-100" value="" style="endArrow=classic;html=1;dashed=1;dashPattern=1 1;exitX=1;exitY=0.5;exitDx=0;exitDy=0;entryX=0;entryY=0.5;entryDx=0;entryDy=0;" parent="1" source="86sGiJdfHTjYPmIvWcyB-98" target="86sGiJdfHTjYPmIvWcyB-103" edge="1">
          <mxGeometry width="50" height="50" relative="1" as="geometry">
            <mxPoint x="-60" y="1330" as="sourcePoint"/>
            <mxPoint x="-10" y="1280" as="targetPoint"/>
          </mxGeometry>
        </mxCell>
        <mxCell id="86sGiJdfHTjYPmIvWcyB-101" value="" style="endArrow=classic;html=1;dashed=1;dashPattern=1 1;exitX=1;exitY=0.5;exitDx=0;exitDy=0;entryX=0;entryY=0.5;entryDx=0;entryDy=0;" parent="1" source="86sGiJdfHTjYPmIvWcyB-99" target="86sGiJdfHTjYPmIvWcyB-88" edge="1">
          <mxGeometry width="50" height="50" relative="1" as="geometry">
            <mxPoint x="90" y="1200" as="sourcePoint"/>
            <mxPoint x="140" y="1150" as="targetPoint"/>
          </mxGeometry>
        </mxCell>
        <mxCell id="86sGiJdfHTjYPmIvWcyB-102" value="" style="endArrow=classic;html=1;exitX=0.5;exitY=0;exitDx=0;exitDy=0;entryX=0.5;entryY=1;entryDx=0;entryDy=0;" parent="1" source="86sGiJdfHTjYPmIvWcyB-88" target="86sGiJdfHTjYPmIvWcyB-103" edge="1">
          <mxGeometry width="50" height="50" relative="1" as="geometry">
            <mxPoint x="246" y="1570" as="sourcePoint"/>
            <mxPoint x="140" y="1200" as="targetPoint"/>
          </mxGeometry>
        </mxCell>
        <mxCell id="86sGiJdfHTjYPmIvWcyB-103" value="spark + yt-data-source" style="rounded=0;whiteSpace=wrap;html=1;align=left;fillColor=#d5e8d4;strokeColor=#82b366;" parent="1" vertex="1">
          <mxGeometry x="140" y="1530" width="220" height="30" as="geometry"/>
        </mxCell>
        <mxCell id="86sGiJdfHTjYPmIvWcyB-104" value="" style="rounded=0;whiteSpace=wrap;html=1;align=left;fillColor=#60a917;strokeColor=#2D7600;fontColor=#ffffff;" parent="1" vertex="1">
          <mxGeometry x="320" y="1530" width="40" height="30" as="geometry"/>
        </mxCell>
        <mxCell id="paRuhMpIjvdy1cON4bkW-13" value="" style="group" parent="1" vertex="1" connectable="0">
          <mxGeometry y="10" width="180" height="310" as="geometry"/>
        </mxCell>
        <mxCell id="L9tVjN2jIlyBQbOZQ9iD-5" value="" style="rounded=0;whiteSpace=wrap;html=1;fillColor=#d5e8d4;strokeColor=#82b366;" parent="paRuhMpIjvdy1cON4bkW-13" vertex="1">
          <mxGeometry width="180" height="310" as="geometry"/>
        </mxCell>
        <mxCell id="L9tVjN2jIlyBQbOZQ9iD-1" value="&lt;div&gt;cluster&lt;/div&gt;&lt;div&gt;v 0.1.x&lt;br&gt;&lt;/div&gt;" style="rounded=0;whiteSpace=wrap;html=1;" parent="paRuhMpIjvdy1cON4bkW-13" vertex="1">
          <mxGeometry x="22.5" y="10" width="135" height="60" as="geometry"/>
        </mxCell>
        <mxCell id="L9tVjN2jIlyBQbOZQ9iD-3" value="&lt;div&gt;yandex-spyt&lt;br&gt;&lt;/div&gt;&lt;div&gt;v 0.1.y&lt;/div&gt;" style="rounded=0;whiteSpace=wrap;html=1;" parent="paRuhMpIjvdy1cON4bkW-13" vertex="1">
          <mxGeometry x="22.5" y="85" width="135" height="55" as="geometry"/>
        </mxCell>
        <mxCell id="paRuhMpIjvdy1cON4bkW-1" value="pyspark&lt;div&gt;v 2.4.4.post0.1.Z-yandex&lt;br&gt;&lt;/div&gt;" style="rounded=0;whiteSpace=wrap;html=1;verticalAlign=top;" parent="paRuhMpIjvdy1cON4bkW-13" vertex="1">
          <mxGeometry x="22.5" y="195" width="135" height="95" as="geometry"/>
        </mxCell>
        <mxCell id="paRuhMpIjvdy1cON4bkW-2" value="&lt;div&gt;yt-data-source&lt;/div&gt;&lt;div&gt;v 0.1.y&lt;/div&gt;" style="rounded=0;whiteSpace=wrap;html=1;" parent="paRuhMpIjvdy1cON4bkW-13" vertex="1">
          <mxGeometry x="22.5" y="140" width="135" height="55" as="geometry"/>
        </mxCell>
        <mxCell id="paRuhMpIjvdy1cON4bkW-11" value="&lt;div&gt;spark-jars&lt;/div&gt;&lt;div&gt;v 0.1.z&lt;br&gt;&lt;/div&gt;" style="rounded=0;whiteSpace=wrap;html=1;" parent="paRuhMpIjvdy1cON4bkW-13" vertex="1">
          <mxGeometry x="28.125" y="240" width="123.75" height="40" as="geometry"/>
        </mxCell>
        <mxCell id="paRuhMpIjvdy1cON4bkW-21" value="" style="group" parent="1" vertex="1" connectable="0">
          <mxGeometry x="200" y="10" width="180" height="310" as="geometry"/>
        </mxCell>
        <mxCell id="paRuhMpIjvdy1cON4bkW-22" value="" style="rounded=0;whiteSpace=wrap;html=1;fillColor=#d5e8d4;strokeColor=#82b366;" parent="paRuhMpIjvdy1cON4bkW-21" vertex="1">
          <mxGeometry width="180" height="310" as="geometry"/>
        </mxCell>
        <mxCell id="paRuhMpIjvdy1cON4bkW-23" value="&lt;div&gt;cluster&lt;/div&gt;&lt;div&gt;v 0.1.&lt;font color=&quot;#009900&quot;&gt;1&lt;/font&gt;&lt;br&gt;&lt;/div&gt;" style="rounded=0;whiteSpace=wrap;html=1;" parent="paRuhMpIjvdy1cON4bkW-21" vertex="1">
          <mxGeometry x="22.5" y="10" width="135" height="60" as="geometry"/>
        </mxCell>
        <mxCell id="paRuhMpIjvdy1cON4bkW-24" value="&lt;div&gt;yandex-spyt&lt;br&gt;&lt;/div&gt;&lt;div&gt;v 0.1.&lt;font color=&quot;#009900&quot;&gt;3&lt;/font&gt;&lt;/div&gt;" style="rounded=0;whiteSpace=wrap;html=1;" parent="paRuhMpIjvdy1cON4bkW-21" vertex="1">
          <mxGeometry x="22.5" y="85" width="135" height="55" as="geometry"/>
        </mxCell>
        <mxCell id="paRuhMpIjvdy1cON4bkW-25" value="pyspark&lt;div&gt;v 2.4.4.post0.1.&lt;font color=&quot;#009900&quot;&gt;2&lt;/font&gt;-yandex&lt;br&gt;&lt;/div&gt;" style="rounded=0;whiteSpace=wrap;html=1;verticalAlign=top;" parent="paRuhMpIjvdy1cON4bkW-21" vertex="1">
          <mxGeometry x="22.5" y="195" width="135" height="95" as="geometry"/>
        </mxCell>
        <mxCell id="paRuhMpIjvdy1cON4bkW-26" value="&lt;div&gt;yt-data-source&lt;/div&gt;&lt;div&gt;v 0.1.&lt;font color=&quot;#009900&quot;&gt;3&lt;/font&gt;&lt;/div&gt;" style="rounded=0;whiteSpace=wrap;html=1;" parent="paRuhMpIjvdy1cON4bkW-21" vertex="1">
          <mxGeometry x="22.5" y="140" width="135" height="55" as="geometry"/>
        </mxCell>
        <mxCell id="paRuhMpIjvdy1cON4bkW-27" value="&lt;div&gt;spark-jars&lt;/div&gt;&lt;div&gt;v 0.1.&lt;font color=&quot;#009900&quot;&gt;2&lt;/font&gt;&lt;br&gt;&lt;/div&gt;" style="rounded=0;whiteSpace=wrap;html=1;" parent="paRuhMpIjvdy1cON4bkW-21" vertex="1">
          <mxGeometry x="28.125" y="240" width="123.75" height="40" as="geometry"/>
        </mxCell>
        <mxCell id="paRuhMpIjvdy1cON4bkW-28" value="" style="group" parent="1" vertex="1" connectable="0">
          <mxGeometry x="560" y="10" width="180" height="310" as="geometry"/>
        </mxCell>
        <mxCell id="paRuhMpIjvdy1cON4bkW-29" value="" style="rounded=0;whiteSpace=wrap;html=1;fillColor=#d5e8d4;strokeColor=#82b366;" parent="paRuhMpIjvdy1cON4bkW-28" vertex="1">
          <mxGeometry width="180" height="310" as="geometry"/>
        </mxCell>
        <mxCell id="paRuhMpIjvdy1cON4bkW-30" value="&lt;div&gt;cluster&lt;/div&gt;&lt;div&gt;v 0.&lt;font color=&quot;#009900&quot;&gt;2&lt;/font&gt;.0&lt;br&gt;&lt;/div&gt;" style="rounded=0;whiteSpace=wrap;html=1;" parent="paRuhMpIjvdy1cON4bkW-28" vertex="1">
          <mxGeometry x="22.5" y="10" width="135" height="60" as="geometry"/>
        </mxCell>
        <mxCell id="paRuhMpIjvdy1cON4bkW-31" value="&lt;div&gt;yandex-spyt&lt;br&gt;&lt;/div&gt;&lt;div&gt;v 0.1.3&lt;/div&gt;" style="rounded=0;whiteSpace=wrap;html=1;" parent="paRuhMpIjvdy1cON4bkW-28" vertex="1">
          <mxGeometry x="22.5" y="85" width="135" height="55" as="geometry"/>
        </mxCell>
        <mxCell id="paRuhMpIjvdy1cON4bkW-32" value="pyspark&lt;div&gt;v 2.4.4.post0.1.2-yandex&lt;br&gt;&lt;/div&gt;" style="rounded=0;whiteSpace=wrap;html=1;verticalAlign=top;" parent="paRuhMpIjvdy1cON4bkW-28" vertex="1">
          <mxGeometry x="22.5" y="195" width="135" height="95" as="geometry"/>
        </mxCell>
        <mxCell id="paRuhMpIjvdy1cON4bkW-33" value="&lt;div&gt;yt-data-source&lt;/div&gt;&lt;div&gt;v 0.1.3&lt;/div&gt;" style="rounded=0;whiteSpace=wrap;html=1;" parent="paRuhMpIjvdy1cON4bkW-28" vertex="1">
          <mxGeometry x="22.5" y="140" width="135" height="55" as="geometry"/>
        </mxCell>
        <mxCell id="paRuhMpIjvdy1cON4bkW-34" value="&lt;div&gt;spark-jars&lt;/div&gt;&lt;div&gt;v 0.1.2&lt;br&gt;&lt;/div&gt;" style="rounded=0;whiteSpace=wrap;html=1;" parent="paRuhMpIjvdy1cON4bkW-28" vertex="1">
          <mxGeometry x="28.125" y="240" width="123.75" height="40" as="geometry"/>
        </mxCell>
        <mxCell id="paRuhMpIjvdy1cON4bkW-35" value="" style="group" parent="1" vertex="1" connectable="0">
          <mxGeometry x="760" y="10" width="180" height="310" as="geometry"/>
        </mxCell>
        <mxCell id="paRuhMpIjvdy1cON4bkW-36" value="" style="rounded=0;whiteSpace=wrap;html=1;fillColor=#d5e8d4;strokeColor=#82b366;" parent="paRuhMpIjvdy1cON4bkW-35" vertex="1">
          <mxGeometry width="180" height="310" as="geometry"/>
        </mxCell>
        <mxCell id="paRuhMpIjvdy1cON4bkW-37" value="&lt;div&gt;cluster&lt;/div&gt;&lt;div&gt;v 0.&lt;font color=&quot;#009900&quot;&gt;2&lt;/font&gt;.0&lt;br&gt;&lt;/div&gt;" style="rounded=0;whiteSpace=wrap;html=1;" parent="paRuhMpIjvdy1cON4bkW-35" vertex="1">
          <mxGeometry x="22.5" y="10" width="135" height="60" as="geometry"/>
        </mxCell>
        <mxCell id="paRuhMpIjvdy1cON4bkW-38" value="&lt;div&gt;yandex-spyt&lt;br&gt;&lt;/div&gt;&lt;div&gt;v 0.&lt;font color=&quot;#009900&quot;&gt;2&lt;/font&gt;.0&lt;/div&gt;" style="rounded=0;whiteSpace=wrap;html=1;" parent="paRuhMpIjvdy1cON4bkW-35" vertex="1">
          <mxGeometry x="22.5" y="85" width="135" height="55" as="geometry"/>
        </mxCell>
        <mxCell id="paRuhMpIjvdy1cON4bkW-39" value="pyspark&lt;div&gt;v 2.4.4.post0.&lt;font color=&quot;#009900&quot;&gt;2&lt;/font&gt;.0-yandex&lt;br&gt;&lt;/div&gt;" style="rounded=0;whiteSpace=wrap;html=1;verticalAlign=top;" parent="paRuhMpIjvdy1cON4bkW-35" vertex="1">
          <mxGeometry x="22.5" y="195" width="135" height="95" as="geometry"/>
        </mxCell>
        <mxCell id="paRuhMpIjvdy1cON4bkW-40" value="&lt;div&gt;yt-data-source&lt;/div&gt;&lt;div&gt;v 0.&lt;font color=&quot;#009900&quot;&gt;2&lt;/font&gt;.0&lt;/div&gt;" style="rounded=0;whiteSpace=wrap;html=1;" parent="paRuhMpIjvdy1cON4bkW-35" vertex="1">
          <mxGeometry x="22.5" y="140" width="135" height="55" as="geometry"/>
        </mxCell>
        <mxCell id="paRuhMpIjvdy1cON4bkW-41" value="&lt;div&gt;spark-jars&lt;/div&gt;&lt;div&gt;v 0.&lt;font color=&quot;#009900&quot;&gt;2&lt;/font&gt;.0&lt;br&gt;&lt;/div&gt;" style="rounded=0;whiteSpace=wrap;html=1;" parent="paRuhMpIjvdy1cON4bkW-35" vertex="1">
          <mxGeometry x="28.125" y="240" width="123.75" height="40" as="geometry"/>
        </mxCell>
        <mxCell id="paRuhMpIjvdy1cON4bkW-43" value="" style="group;fillColor=#ffe6cc;strokeColor=#d79b00;" parent="1" vertex="1" connectable="0">
          <mxGeometry x="960" y="10" width="180" height="310" as="geometry"/>
        </mxCell>
        <mxCell id="paRuhMpIjvdy1cON4bkW-44" value="" style="rounded=0;whiteSpace=wrap;html=1;fillColor=#ffe6cc;strokeColor=#d79b00;" parent="paRuhMpIjvdy1cON4bkW-43" vertex="1">
          <mxGeometry width="180" height="310" as="geometry"/>
        </mxCell>
        <mxCell id="paRuhMpIjvdy1cON4bkW-45" value="&lt;div&gt;cluster&lt;/div&gt;&lt;div&gt;v 0.&lt;font color=&quot;#990000&quot;&gt;1&lt;/font&gt;.0&lt;br&gt;&lt;/div&gt;" style="rounded=0;whiteSpace=wrap;html=1;" parent="paRuhMpIjvdy1cON4bkW-43" vertex="1">
          <mxGeometry x="22.5" y="10" width="135" height="60" as="geometry"/>
        </mxCell>
        <mxCell id="paRuhMpIjvdy1cON4bkW-46" value="&lt;div&gt;yandex-spyt&lt;br&gt;&lt;/div&gt;&lt;div&gt;v 0.&lt;font color=&quot;#990000&quot;&gt;2&lt;/font&gt;.0&lt;/div&gt;" style="rounded=0;whiteSpace=wrap;html=1;" parent="paRuhMpIjvdy1cON4bkW-43" vertex="1">
          <mxGeometry x="22.5" y="85" width="135" height="55" as="geometry"/>
        </mxCell>
        <mxCell id="paRuhMpIjvdy1cON4bkW-47" value="pyspark&lt;div&gt;v 2.4.4.post0.&lt;font color=&quot;#990000&quot;&gt;2&lt;/font&gt;.0-yandex&lt;br&gt;&lt;/div&gt;" style="rounded=0;whiteSpace=wrap;html=1;verticalAlign=top;" parent="paRuhMpIjvdy1cON4bkW-43" vertex="1">
          <mxGeometry x="22.5" y="195" width="135" height="95" as="geometry"/>
        </mxCell>
        <mxCell id="paRuhMpIjvdy1cON4bkW-48" value="&lt;div&gt;yt-data-source&lt;/div&gt;&lt;div&gt;v 0.&lt;font color=&quot;#990000&quot;&gt;2&lt;/font&gt;.0&lt;/div&gt;" style="rounded=0;whiteSpace=wrap;html=1;" parent="paRuhMpIjvdy1cON4bkW-43" vertex="1">
          <mxGeometry x="22.5" y="140" width="135" height="55" as="geometry"/>
        </mxCell>
        <mxCell id="paRuhMpIjvdy1cON4bkW-49" value="&lt;div&gt;spark-jars&lt;/div&gt;&lt;div&gt;v 0.&lt;font color=&quot;#990000&quot;&gt;2&lt;/font&gt;.0&lt;br&gt;&lt;/div&gt;" style="rounded=0;whiteSpace=wrap;html=1;" parent="paRuhMpIjvdy1cON4bkW-43" vertex="1">
          <mxGeometry x="28.125" y="240" width="123.75" height="40" as="geometry"/>
        </mxCell>
        <mxCell id="86sGiJdfHTjYPmIvWcyB-30" value="&amp;nbsp;jupyter.yandex-team.ru" style="rounded=0;whiteSpace=wrap;html=1;verticalAlign=top;align=left;fillColor=#f5f5f5;strokeColor=#666666;fontColor=#333333;" parent="1" vertex="1">
          <mxGeometry x="720" y="920" width="260" height="180" as="geometry"/>
        </mxCell>
        <mxCell id="86sGiJdfHTjYPmIvWcyB-32" value="&amp;nbsp;YT Vanilla" style="rounded=0;whiteSpace=wrap;html=1;verticalAlign=top;align=left;fillColor=#f5f5f5;strokeColor=#666666;fontColor=#333333;" parent="1" vertex="1">
          <mxGeometry x="720" y="740" width="260" height="150" as="geometry"/>
        </mxCell>
        <mxCell id="86sGiJdfHTjYPmIvWcyB-40" value="&amp;nbsp;YT Storage" style="rounded=0;whiteSpace=wrap;html=1;align=left;verticalAlign=top;" parent="1" vertex="1">
          <mxGeometry x="530" y="740" width="160" height="180" as="geometry"/>
        </mxCell>
        <mxCell id="86sGiJdfHTjYPmIvWcyB-41" value="spark.tgz" style="rounded=0;whiteSpace=wrap;html=1;align=left;fillColor=#dae8fc;strokeColor=#6c8ebf;" parent="1" vertex="1">
          <mxGeometry x="540" y="780" width="120" height="30" as="geometry"/>
        </mxCell>
        <mxCell id="86sGiJdfHTjYPmIvWcyB-44" value="pypi.yandex-team.ru" style="rounded=0;whiteSpace=wrap;html=1;align=left;" parent="1" vertex="1">
          <mxGeometry x="530" y="1010" width="160" height="50" as="geometry"/>
        </mxCell>
        <mxCell id="86sGiJdfHTjYPmIvWcyB-52" value="" style="group;fillColor=#60a917;strokeColor=#2D7600;fontColor=#ffffff;" parent="1" vertex="1" connectable="0">
          <mxGeometry x="730" y="780" width="220" height="30" as="geometry"/>
        </mxCell>
        <mxCell id="86sGiJdfHTjYPmIvWcyB-53" value="spark" style="rounded=0;whiteSpace=wrap;html=1;align=left;fillColor=#d5e8d4;strokeColor=#82b366;" parent="86sGiJdfHTjYPmIvWcyB-52" vertex="1">
          <mxGeometry width="220" height="30" as="geometry"/>
        </mxCell>
        <mxCell id="86sGiJdfHTjYPmIvWcyB-54" value="" style="rounded=0;whiteSpace=wrap;html=1;align=left;fillColor=#60a917;strokeColor=#2D7600;fontColor=#ffffff;" parent="86sGiJdfHTjYPmIvWcyB-52" vertex="1">
          <mxGeometry x="180" width="40" height="30" as="geometry"/>
        </mxCell>
        <mxCell id="86sGiJdfHTjYPmIvWcyB-59" value="" style="group" parent="1" vertex="1" connectable="0">
          <mxGeometry x="730" y="1050" width="220" height="30" as="geometry"/>
        </mxCell>
        <mxCell id="86sGiJdfHTjYPmIvWcyB-60" value="pyspark + spark" style="rounded=0;whiteSpace=wrap;html=1;align=left;fillColor=#d5e8d4;strokeColor=#82b366;" parent="86sGiJdfHTjYPmIvWcyB-59" vertex="1">
          <mxGeometry width="220" height="30" as="geometry"/>
        </mxCell>
        <mxCell id="86sGiJdfHTjYPmIvWcyB-61" value="" style="rounded=0;whiteSpace=wrap;html=1;align=left;fillColor=#60a917;strokeColor=#2D7600;fontColor=#ffffff;" parent="86sGiJdfHTjYPmIvWcyB-59" vertex="1">
          <mxGeometry x="180" width="40" height="30" as="geometry"/>
        </mxCell>
        <mxCell id="86sGiJdfHTjYPmIvWcyB-66" value="yandex-spyt" style="rounded=0;whiteSpace=wrap;html=1;align=left;fillColor=#d5e8d4;strokeColor=#82b366;" parent="1" vertex="1">
          <mxGeometry x="730" y="1000" width="220" height="30" as="geometry"/>
        </mxCell>
        <mxCell id="86sGiJdfHTjYPmIvWcyB-107" value="" style="group" parent="1" vertex="1" connectable="0">
          <mxGeometry x="540" y="840" width="120" height="60" as="geometry"/>
        </mxCell>
        <mxCell id="86sGiJdfHTjYPmIvWcyB-48" value="yt-data-source.jar" style="rounded=0;whiteSpace=wrap;html=1;align=left;fillColor=#dae8fc;strokeColor=#6c8ebf;" parent="86sGiJdfHTjYPmIvWcyB-107" vertex="1">
          <mxGeometry width="120" height="30" as="geometry"/>
        </mxCell>
        <mxCell id="86sGiJdfHTjYPmIvWcyB-49" value="spyt.zip" style="rounded=0;whiteSpace=wrap;html=1;align=left;fillColor=#dae8fc;strokeColor=#6c8ebf;" parent="86sGiJdfHTjYPmIvWcyB-107" vertex="1">
          <mxGeometry y="30" width="120" height="30" as="geometry"/>
        </mxCell>
        <mxCell id="86sGiJdfHTjYPmIvWcyB-108" value="" style="endArrow=classic;html=1;exitX=1;exitY=1;exitDx=0;exitDy=0;entryX=0;entryY=0.5;entryDx=0;entryDy=0;dashed=1;dashPattern=1 1;" parent="1" source="86sGiJdfHTjYPmIvWcyB-48" target="86sGiJdfHTjYPmIvWcyB-63" edge="1">
          <mxGeometry width="50" height="50" relative="1" as="geometry">
            <mxPoint x="570" y="1160" as="sourcePoint"/>
            <mxPoint x="620" y="1110" as="targetPoint"/>
          </mxGeometry>
        </mxCell>
        <mxCell id="86sGiJdfHTjYPmIvWcyB-109" value="" style="endArrow=classic;html=1;dashed=1;dashPattern=1 1;exitX=1;exitY=0;exitDx=0;exitDy=0;entryX=0;entryY=0.5;entryDx=0;entryDy=0;" parent="1" source="86sGiJdfHTjYPmIvWcyB-49" target="86sGiJdfHTjYPmIvWcyB-57" edge="1">
          <mxGeometry width="50" height="50" relative="1" as="geometry">
            <mxPoint x="410" y="1100" as="sourcePoint"/>
            <mxPoint x="460" y="1050" as="targetPoint"/>
          </mxGeometry>
        </mxCell>
        <mxCell id="86sGiJdfHTjYPmIvWcyB-110" value="" style="endArrow=classic;html=1;dashed=1;dashPattern=1 1;exitX=1;exitY=0.5;exitDx=0;exitDy=0;entryX=0;entryY=0.5;entryDx=0;entryDy=0;" parent="1" source="86sGiJdfHTjYPmIvWcyB-44" target="86sGiJdfHTjYPmIvWcyB-66" edge="1">
          <mxGeometry width="50" height="50" relative="1" as="geometry">
            <mxPoint x="530" y="1250" as="sourcePoint"/>
            <mxPoint x="580" y="1200" as="targetPoint"/>
          </mxGeometry>
        </mxCell>
        <mxCell id="86sGiJdfHTjYPmIvWcyB-111" value="" style="endArrow=classic;html=1;dashed=1;dashPattern=1 1;exitX=1;exitY=0.5;exitDx=0;exitDy=0;entryX=0;entryY=0.5;entryDx=0;entryDy=0;" parent="1" source="86sGiJdfHTjYPmIvWcyB-44" target="86sGiJdfHTjYPmIvWcyB-60" edge="1">
          <mxGeometry width="50" height="50" relative="1" as="geometry">
            <mxPoint x="690" y="1065" as="sourcePoint"/>
            <mxPoint x="530" y="1190" as="targetPoint"/>
          </mxGeometry>
        </mxCell>
        <mxCell id="86sGiJdfHTjYPmIvWcyB-112" value="" style="endArrow=classic;html=1;dashed=1;dashPattern=1 1;exitX=1;exitY=0.5;exitDx=0;exitDy=0;entryX=0;entryY=0.5;entryDx=0;entryDy=0;" parent="1" source="86sGiJdfHTjYPmIvWcyB-41" target="86sGiJdfHTjYPmIvWcyB-53" edge="1">
          <mxGeometry width="50" height="50" relative="1" as="geometry">
            <mxPoint x="420" y="800" as="sourcePoint"/>
            <mxPoint x="470" y="750" as="targetPoint"/>
          </mxGeometry>
        </mxCell>
        <mxCell id="86sGiJdfHTjYPmIvWcyB-113" value="" style="endArrow=classic;html=1;exitX=0.5;exitY=1;exitDx=0;exitDy=0;entryX=0.5;entryY=0;entryDx=0;entryDy=0;" parent="1" source="86sGiJdfHTjYPmIvWcyB-66" target="86sGiJdfHTjYPmIvWcyB-60" edge="1">
          <mxGeometry width="50" height="50" relative="1" as="geometry">
            <mxPoint x="880" y="1250" as="sourcePoint"/>
            <mxPoint x="930" y="1200" as="targetPoint"/>
          </mxGeometry>
        </mxCell>
        <mxCell id="86sGiJdfHTjYPmIvWcyB-114" value="" style="endArrow=classic;startArrow=classic;html=1;exitX=1;exitY=0.5;exitDx=0;exitDy=0;entryX=1;entryY=0.5;entryDx=0;entryDy=0;" parent="1" source="86sGiJdfHTjYPmIvWcyB-61" target="86sGiJdfHTjYPmIvWcyB-54" edge="1">
          <mxGeometry width="50" height="50" relative="1" as="geometry">
            <mxPoint x="730" y="1270" as="sourcePoint"/>
            <mxPoint x="780" y="1220" as="targetPoint"/>
            <Array as="points">
              <mxPoint x="1060" y="930"/>
            </Array>
          </mxGeometry>
        </mxCell>
        <mxCell id="86sGiJdfHTjYPmIvWcyB-57" value="yt-data-source + spyt" style="rounded=0;whiteSpace=wrap;html=1;align=left;fillColor=#d5e8d4;strokeColor=#82b366;dashed=1;" parent="1" vertex="1">
          <mxGeometry x="730" y="830" width="220" height="30" as="geometry"/>
        </mxCell>
        <mxCell id="86sGiJdfHTjYPmIvWcyB-58" value="" style="rounded=0;whiteSpace=wrap;html=1;align=left;fillColor=#60a917;strokeColor=#2D7600;fontColor=#ffffff;dashed=1;" parent="1" vertex="1">
          <mxGeometry x="910" y="830" width="40" height="30" as="geometry"/>
        </mxCell>
        <mxCell id="86sGiJdfHTjYPmIvWcyB-63" value="yt-data-source" style="rounded=0;whiteSpace=wrap;html=1;align=left;fillColor=#d5e8d4;strokeColor=#82b366;dashed=1;" parent="1" vertex="1">
          <mxGeometry x="730" y="955" width="220" height="30" as="geometry"/>
        </mxCell>
        <mxCell id="86sGiJdfHTjYPmIvWcyB-64" value="" style="rounded=0;whiteSpace=wrap;html=1;align=left;fillColor=#60a917;strokeColor=#2D7600;fontColor=#ffffff;dashed=1;" parent="1" vertex="1">
          <mxGeometry x="910" y="955" width="40" height="30" as="geometry"/>
        </mxCell>
        <mxCell id="86sGiJdfHTjYPmIvWcyB-115" value="" style="endArrow=classic;startArrow=classic;html=1;exitX=0.5;exitY=1;exitDx=0;exitDy=0;entryX=0.5;entryY=0;entryDx=0;entryDy=0;" parent="1" source="86sGiJdfHTjYPmIvWcyB-58" target="86sGiJdfHTjYPmIvWcyB-64" edge="1">
          <mxGeometry width="50" height="50" relative="1" as="geometry">
            <mxPoint x="700" y="1200" as="sourcePoint"/>
            <mxPoint x="750" y="1150" as="targetPoint"/>
          </mxGeometry>
        </mxCell>
        <mxCell id="EGdFYAJYDjB4Xxh_6d06-1" value="" style="endArrow=classic;html=1;exitX=0.5;exitY=0;exitDx=0;exitDy=0;entryX=0.5;entryY=1;entryDx=0;entryDy=0;" parent="1" source="86sGiJdfHTjYPmIvWcyB-66" target="86sGiJdfHTjYPmIvWcyB-63" edge="1">
          <mxGeometry width="50" height="50" relative="1" as="geometry">
            <mxPoint x="560" y="1000" as="sourcePoint"/>
            <mxPoint x="610" y="950" as="targetPoint"/>
          </mxGeometry>
        </mxCell>
        <mxCell id="EGdFYAJYDjB4Xxh_6d06-2" value="&amp;nbsp;jupyter.yandex-team.ru" style="rounded=0;whiteSpace=wrap;html=1;verticalAlign=top;align=left;fillColor=#f5f5f5;strokeColor=#666666;fontColor=#333333;" parent="1" vertex="1">
          <mxGeometry x="720" y="1340" width="260" height="180" as="geometry"/>
        </mxCell>
        <mxCell id="EGdFYAJYDjB4Xxh_6d06-3" value="&amp;nbsp;YT Vanilla" style="rounded=0;whiteSpace=wrap;html=1;verticalAlign=top;align=left;fillColor=#f5f5f5;strokeColor=#666666;fontColor=#333333;" parent="1" vertex="1">
          <mxGeometry x="720" y="1160" width="260" height="150" as="geometry"/>
        </mxCell>
        <mxCell id="EGdFYAJYDjB4Xxh_6d06-4" value="&amp;nbsp;YT Storage" style="rounded=0;whiteSpace=wrap;html=1;align=left;verticalAlign=top;" parent="1" vertex="1">
          <mxGeometry x="530" y="1160" width="160" height="180" as="geometry"/>
        </mxCell>
        <mxCell id="EGdFYAJYDjB4Xxh_6d06-5" value="spark.tgz" style="rounded=0;whiteSpace=wrap;html=1;align=left;fillColor=#dae8fc;strokeColor=#6c8ebf;" parent="1" vertex="1">
          <mxGeometry x="540" y="1200" width="120" height="30" as="geometry"/>
        </mxCell>
        <mxCell id="EGdFYAJYDjB4Xxh_6d06-6" value="pypi.yandex-team.ru" style="rounded=0;whiteSpace=wrap;html=1;align=left;" parent="1" vertex="1">
          <mxGeometry x="530" y="1430" width="160" height="50" as="geometry"/>
        </mxCell>
        <mxCell id="EGdFYAJYDjB4Xxh_6d06-7" value="" style="group;fillColor=#60a917;strokeColor=#2D7600;fontColor=#ffffff;" parent="1" vertex="1" connectable="0">
          <mxGeometry x="730" y="1200" width="220" height="30" as="geometry"/>
        </mxCell>
        <mxCell id="EGdFYAJYDjB4Xxh_6d06-8" value="spark" style="rounded=0;whiteSpace=wrap;html=1;align=left;fillColor=#d5e8d4;strokeColor=#82b366;" parent="EGdFYAJYDjB4Xxh_6d06-7" vertex="1">
          <mxGeometry width="220" height="30" as="geometry"/>
        </mxCell>
        <mxCell id="EGdFYAJYDjB4Xxh_6d06-9" value="" style="rounded=0;whiteSpace=wrap;html=1;align=left;fillColor=#60a917;strokeColor=#2D7600;fontColor=#ffffff;" parent="EGdFYAJYDjB4Xxh_6d06-7" vertex="1">
          <mxGeometry x="180" width="40" height="30" as="geometry"/>
        </mxCell>
        <mxCell id="EGdFYAJYDjB4Xxh_6d06-10" value="" style="group;fillColor=#ffe6cc;strokeColor=#d79b00;" parent="1" vertex="1" connectable="0">
          <mxGeometry x="730" y="1470" width="220" height="30" as="geometry"/>
        </mxCell>
        <mxCell id="EGdFYAJYDjB4Xxh_6d06-13" value="yandex-spyt" style="rounded=0;whiteSpace=wrap;html=1;align=left;fillColor=#ffe6cc;strokeColor=#d79b00;" parent="1" vertex="1">
          <mxGeometry x="730" y="1420" width="220" height="30" as="geometry"/>
        </mxCell>
        <mxCell id="EGdFYAJYDjB4Xxh_6d06-14" value="" style="group" parent="1" vertex="1" connectable="0">
          <mxGeometry x="540" y="1260" width="120" height="60" as="geometry"/>
        </mxCell>
        <mxCell id="EGdFYAJYDjB4Xxh_6d06-15" value="yt-data-source.jar" style="rounded=0;whiteSpace=wrap;html=1;align=left;fillColor=#dae8fc;strokeColor=#6c8ebf;" parent="EGdFYAJYDjB4Xxh_6d06-14" vertex="1">
          <mxGeometry width="120" height="30" as="geometry"/>
        </mxCell>
        <mxCell id="EGdFYAJYDjB4Xxh_6d06-16" value="spyt.zip" style="rounded=0;whiteSpace=wrap;html=1;align=left;fillColor=#dae8fc;strokeColor=#6c8ebf;" parent="EGdFYAJYDjB4Xxh_6d06-14" vertex="1">
          <mxGeometry y="30" width="120" height="30" as="geometry"/>
        </mxCell>
        <mxCell id="EGdFYAJYDjB4Xxh_6d06-17" value="" style="endArrow=classic;html=1;exitX=1;exitY=1;exitDx=0;exitDy=0;entryX=0;entryY=0.5;entryDx=0;entryDy=0;dashed=1;dashPattern=1 1;" parent="1" source="EGdFYAJYDjB4Xxh_6d06-15" target="EGdFYAJYDjB4Xxh_6d06-26" edge="1">
          <mxGeometry width="50" height="50" relative="1" as="geometry">
            <mxPoint x="570" y="1580" as="sourcePoint"/>
            <mxPoint x="620" y="1530" as="targetPoint"/>
          </mxGeometry>
        </mxCell>
        <mxCell id="EGdFYAJYDjB4Xxh_6d06-18" value="" style="endArrow=classic;html=1;dashed=1;dashPattern=1 1;exitX=1;exitY=0;exitDx=0;exitDy=0;entryX=0;entryY=0.5;entryDx=0;entryDy=0;" parent="1" source="EGdFYAJYDjB4Xxh_6d06-16" target="EGdFYAJYDjB4Xxh_6d06-24" edge="1">
          <mxGeometry width="50" height="50" relative="1" as="geometry">
            <mxPoint x="410" y="1520" as="sourcePoint"/>
            <mxPoint x="460" y="1470" as="targetPoint"/>
          </mxGeometry>
        </mxCell>
        <mxCell id="EGdFYAJYDjB4Xxh_6d06-19" value="" style="endArrow=classic;html=1;dashed=1;dashPattern=1 1;exitX=1;exitY=0.5;exitDx=0;exitDy=0;entryX=0;entryY=0.5;entryDx=0;entryDy=0;" parent="1" source="EGdFYAJYDjB4Xxh_6d06-6" target="EGdFYAJYDjB4Xxh_6d06-13" edge="1">
          <mxGeometry width="50" height="50" relative="1" as="geometry">
            <mxPoint x="530" y="1670" as="sourcePoint"/>
            <mxPoint x="580" y="1620" as="targetPoint"/>
          </mxGeometry>
        </mxCell>
        <mxCell id="EGdFYAJYDjB4Xxh_6d06-20" value="" style="endArrow=classic;html=1;dashed=1;dashPattern=1 1;exitX=1;exitY=0.5;exitDx=0;exitDy=0;entryX=0;entryY=0.5;entryDx=0;entryDy=0;" parent="1" source="EGdFYAJYDjB4Xxh_6d06-6" target="EGdFYAJYDjB4Xxh_6d06-11" edge="1">
          <mxGeometry width="50" height="50" relative="1" as="geometry">
            <mxPoint x="690" y="1485" as="sourcePoint"/>
            <mxPoint x="530" y="1610" as="targetPoint"/>
          </mxGeometry>
        </mxCell>
        <mxCell id="EGdFYAJYDjB4Xxh_6d06-21" value="" style="endArrow=classic;html=1;dashed=1;dashPattern=1 1;exitX=1;exitY=0.5;exitDx=0;exitDy=0;entryX=0;entryY=0.5;entryDx=0;entryDy=0;" parent="1" source="EGdFYAJYDjB4Xxh_6d06-5" target="EGdFYAJYDjB4Xxh_6d06-8" edge="1">
          <mxGeometry width="50" height="50" relative="1" as="geometry">
            <mxPoint x="420" y="1220" as="sourcePoint"/>
            <mxPoint x="470" y="1170" as="targetPoint"/>
          </mxGeometry>
        </mxCell>
        <mxCell id="EGdFYAJYDjB4Xxh_6d06-22" value="" style="endArrow=classic;html=1;exitX=0.5;exitY=1;exitDx=0;exitDy=0;entryX=0.5;entryY=0;entryDx=0;entryDy=0;" parent="1" source="EGdFYAJYDjB4Xxh_6d06-13" target="EGdFYAJYDjB4Xxh_6d06-11" edge="1">
          <mxGeometry width="50" height="50" relative="1" as="geometry">
            <mxPoint x="880" y="1670" as="sourcePoint"/>
            <mxPoint x="930" y="1620" as="targetPoint"/>
          </mxGeometry>
        </mxCell>
        <mxCell id="EGdFYAJYDjB4Xxh_6d06-23" value="" style="endArrow=classic;startArrow=classic;html=1;exitX=1;exitY=0.5;exitDx=0;exitDy=0;entryX=1;entryY=0.5;entryDx=0;entryDy=0;" parent="1" source="EGdFYAJYDjB4Xxh_6d06-12" target="EGdFYAJYDjB4Xxh_6d06-9" edge="1">
          <mxGeometry width="50" height="50" relative="1" as="geometry">
            <mxPoint x="730" y="1690" as="sourcePoint"/>
            <mxPoint x="780" y="1640" as="targetPoint"/>
            <Array as="points">
              <mxPoint x="1060" y="1350"/>
            </Array>
          </mxGeometry>
        </mxCell>
        <mxCell id="EGdFYAJYDjB4Xxh_6d06-24" value="yt-data-source + spyt" style="rounded=0;whiteSpace=wrap;html=1;align=left;fillColor=#ffe6cc;strokeColor=#d79b00;dashed=1;" parent="1" vertex="1">
          <mxGeometry x="730" y="1250" width="220" height="30" as="geometry"/>
        </mxCell>
        <mxCell id="EGdFYAJYDjB4Xxh_6d06-25" value="" style="rounded=0;whiteSpace=wrap;html=1;align=left;fillColor=#f0a30a;strokeColor=#BD7000;dashed=1;fontColor=#ffffff;" parent="1" vertex="1">
          <mxGeometry x="910" y="1250" width="40" height="30" as="geometry"/>
        </mxCell>
        <mxCell id="EGdFYAJYDjB4Xxh_6d06-26" value="yt-data-source" style="rounded=0;whiteSpace=wrap;html=1;align=left;fillColor=#ffe6cc;strokeColor=#d79b00;dashed=1;" parent="1" vertex="1">
          <mxGeometry x="730" y="1375" width="220" height="30" as="geometry"/>
        </mxCell>
        <mxCell id="EGdFYAJYDjB4Xxh_6d06-27" value="" style="rounded=0;whiteSpace=wrap;html=1;align=left;fillColor=#f0a30a;strokeColor=#BD7000;fontColor=#ffffff;dashed=1;" parent="1" vertex="1">
          <mxGeometry x="910" y="1375" width="40" height="30" as="geometry"/>
        </mxCell>
        <mxCell id="EGdFYAJYDjB4Xxh_6d06-28" value="" style="endArrow=classic;startArrow=classic;html=1;exitX=0.5;exitY=1;exitDx=0;exitDy=0;entryX=0.5;entryY=0;entryDx=0;entryDy=0;" parent="1" source="EGdFYAJYDjB4Xxh_6d06-25" target="EGdFYAJYDjB4Xxh_6d06-27" edge="1">
          <mxGeometry width="50" height="50" relative="1" as="geometry">
            <mxPoint x="700" y="1620" as="sourcePoint"/>
            <mxPoint x="750" y="1570" as="targetPoint"/>
          </mxGeometry>
        </mxCell>
        <mxCell id="EGdFYAJYDjB4Xxh_6d06-29" value="" style="endArrow=classic;html=1;exitX=0.5;exitY=0;exitDx=0;exitDy=0;entryX=0.5;entryY=1;entryDx=0;entryDy=0;" parent="1" source="EGdFYAJYDjB4Xxh_6d06-13" target="EGdFYAJYDjB4Xxh_6d06-26" edge="1">
          <mxGeometry width="50" height="50" relative="1" as="geometry">
            <mxPoint x="560" y="1420" as="sourcePoint"/>
            <mxPoint x="610" y="1370" as="targetPoint"/>
          </mxGeometry>
        </mxCell>
        <mxCell id="EGdFYAJYDjB4Xxh_6d06-11" value="pyspark + spark" style="rounded=0;whiteSpace=wrap;html=1;align=left;fillColor=#ffe6cc;strokeColor=#d79b00;" parent="1" vertex="1">
          <mxGeometry x="730" y="1470" width="220" height="30" as="geometry"/>
        </mxCell>
        <mxCell id="EGdFYAJYDjB4Xxh_6d06-12" value="" style="rounded=0;whiteSpace=wrap;html=1;align=left;fillColor=#60a917;strokeColor=#2D7600;fontColor=#ffffff;" parent="1" vertex="1">
          <mxGeometry x="910" y="1470" width="40" height="30" as="geometry"/>
        </mxCell>
      </root>
    </mxGraphModel>
  </diagram>
  <diagram id="WJ0OkL4rj8qBhz5Sw1_B" name="Page-2">
        <mxGraphModel dx="1186" dy="779" grid="1" gridSize="10" guides="1" tooltips="1" connect="1" arrows="1" fold="1" page="1" pageScale="1" pageWidth="850" pageHeight="1100" math="0" shadow="0">
            <root>
                <mxCell id="OJUNw59y4dNekSy0ZmCq-0"/>
                <mxCell id="OJUNw59y4dNekSy0ZmCq-1" parent="OJUNw59y4dNekSy0ZmCq-0"/>
                <mxCell id="vGXIEMNQdJ8kbQFFF9Bb-0" value="&amp;nbsp;jupyter.yandex-team.ru" style="rounded=0;whiteSpace=wrap;html=1;verticalAlign=top;align=left;fillColor=#f5f5f5;strokeColor=#666666;fontColor=#333333;" vertex="1" parent="OJUNw59y4dNekSy0ZmCq-1">
                    <mxGeometry x="340" y="560" width="260" height="180" as="geometry"/>
                  </mxCell>
                <mxCell id="vGXIEMNQdJ8kbQFFF9Bb-1" value="&amp;nbsp;YT Vanilla" style="rounded=0;whiteSpace=wrap;html=1;verticalAlign=top;align=left;fillColor=#f5f5f5;strokeColor=#666666;fontColor=#333333;" vertex="1" parent="OJUNw59y4dNekSy0ZmCq-1">
                    <mxGeometry x="340" y="380" width="260" height="150" as="geometry"/>
                  </mxCell>
                <mxCell id="vGXIEMNQdJ8kbQFFF9Bb-2" value="&amp;nbsp;YT Storage" style="rounded=0;whiteSpace=wrap;html=1;align=left;verticalAlign=top;" vertex="1" parent="OJUNw59y4dNekSy0ZmCq-1">
                    <mxGeometry x="150" y="380" width="160" height="180" as="geometry"/>
                  </mxCell>
                <mxCell id="vGXIEMNQdJ8kbQFFF9Bb-3" value="spark.tgz" style="rounded=0;whiteSpace=wrap;html=1;align=left;fillColor=#dae8fc;strokeColor=#6c8ebf;" vertex="1" parent="OJUNw59y4dNekSy0ZmCq-1">
                    <mxGeometry x="160" y="420" width="120" height="30" as="geometry"/>
                  </mxCell>
                <mxCell id="vGXIEMNQdJ8kbQFFF9Bb-4" value="pypi.yandex-team.ru" style="rounded=0;whiteSpace=wrap;html=1;align=left;" vertex="1" parent="OJUNw59y4dNekSy0ZmCq-1">
                    <mxGeometry x="150" y="650" width="160" height="50" as="geometry"/>
                  </mxCell>
                <mxCell id="vGXIEMNQdJ8kbQFFF9Bb-5" value="" style="group;fillColor=#60a917;strokeColor=#2D7600;fontColor=#ffffff;" vertex="1" connectable="0" parent="OJUNw59y4dNekSy0ZmCq-1">
                    <mxGeometry x="350" y="420" width="220" height="30" as="geometry"/>
                  </mxCell>
                <mxCell id="vGXIEMNQdJ8kbQFFF9Bb-6" value="spark" style="rounded=0;whiteSpace=wrap;html=1;align=left;fillColor=#d5e8d4;strokeColor=#82b366;" vertex="1" parent="vGXIEMNQdJ8kbQFFF9Bb-5">
                    <mxGeometry width="220" height="30" as="geometry"/>
                  </mxCell>
                <mxCell id="vGXIEMNQdJ8kbQFFF9Bb-7" value="" style="rounded=0;whiteSpace=wrap;html=1;align=left;fillColor=#60a917;strokeColor=#2D7600;fontColor=#ffffff;" vertex="1" parent="vGXIEMNQdJ8kbQFFF9Bb-5">
                    <mxGeometry x="180" width="40" height="30" as="geometry"/>
                  </mxCell>
                <mxCell id="vGXIEMNQdJ8kbQFFF9Bb-8" value="" style="group" vertex="1" connectable="0" parent="OJUNw59y4dNekSy0ZmCq-1">
                    <mxGeometry x="350" y="690" width="220" height="30" as="geometry"/>
                  </mxCell>
                <mxCell id="vGXIEMNQdJ8kbQFFF9Bb-9" value="pyspark + spark" style="rounded=0;whiteSpace=wrap;html=1;align=left;fillColor=#d5e8d4;strokeColor=#82b366;" vertex="1" parent="vGXIEMNQdJ8kbQFFF9Bb-8">
                    <mxGeometry width="220" height="30" as="geometry"/>
                  </mxCell>
                <mxCell id="vGXIEMNQdJ8kbQFFF9Bb-10" value="" style="rounded=0;whiteSpace=wrap;html=1;align=left;fillColor=#60a917;strokeColor=#2D7600;fontColor=#ffffff;" vertex="1" parent="vGXIEMNQdJ8kbQFFF9Bb-8">
                    <mxGeometry x="180" width="40" height="30" as="geometry"/>
                  </mxCell>
                <mxCell id="vGXIEMNQdJ8kbQFFF9Bb-11" value="yandex-spyt" style="rounded=0;whiteSpace=wrap;html=1;align=left;fillColor=#d5e8d4;strokeColor=#82b366;" vertex="1" parent="OJUNw59y4dNekSy0ZmCq-1">
                    <mxGeometry x="350" y="640" width="220" height="30" as="geometry"/>
                  </mxCell>
                <mxCell id="vGXIEMNQdJ8kbQFFF9Bb-12" value="" style="group" vertex="1" connectable="0" parent="OJUNw59y4dNekSy0ZmCq-1">
                    <mxGeometry x="160" y="480" width="120" height="60" as="geometry"/>
                  </mxCell>
                <mxCell id="vGXIEMNQdJ8kbQFFF9Bb-13" value="yt-data-source.jar" style="rounded=0;whiteSpace=wrap;html=1;align=left;fillColor=#dae8fc;strokeColor=#6c8ebf;" vertex="1" parent="vGXIEMNQdJ8kbQFFF9Bb-12">
                    <mxGeometry width="120" height="30" as="geometry"/>
                  </mxCell>
                <mxCell id="vGXIEMNQdJ8kbQFFF9Bb-14" value="spyt.zip" style="rounded=0;whiteSpace=wrap;html=1;align=left;fillColor=#dae8fc;strokeColor=#6c8ebf;" vertex="1" parent="vGXIEMNQdJ8kbQFFF9Bb-12">
                    <mxGeometry y="30" width="120" height="30" as="geometry"/>
                  </mxCell>
                <mxCell id="vGXIEMNQdJ8kbQFFF9Bb-15" value="" style="endArrow=classic;html=1;exitX=1;exitY=1;exitDx=0;exitDy=0;entryX=0;entryY=0.5;entryDx=0;entryDy=0;dashed=1;dashPattern=1 1;" edge="1" parent="OJUNw59y4dNekSy0ZmCq-1" source="vGXIEMNQdJ8kbQFFF9Bb-13" target="vGXIEMNQdJ8kbQFFF9Bb-24">
                    <mxGeometry width="50" height="50" relative="1" as="geometry">
                        <mxPoint x="190" y="800" as="sourcePoint"/>
                        <mxPoint x="240" y="750" as="targetPoint"/>
                      </mxGeometry>
                  </mxCell>
                <mxCell id="vGXIEMNQdJ8kbQFFF9Bb-16" value="" style="endArrow=classic;html=1;dashed=1;dashPattern=1 1;exitX=1;exitY=0;exitDx=0;exitDy=0;entryX=0;entryY=0.5;entryDx=0;entryDy=0;" edge="1" parent="OJUNw59y4dNekSy0ZmCq-1" source="vGXIEMNQdJ8kbQFFF9Bb-14" target="vGXIEMNQdJ8kbQFFF9Bb-22">
                    <mxGeometry width="50" height="50" relative="1" as="geometry">
                        <mxPoint x="30" y="740" as="sourcePoint"/>
                        <mxPoint x="80" y="690" as="targetPoint"/>
                      </mxGeometry>
                  </mxCell>
                <mxCell id="vGXIEMNQdJ8kbQFFF9Bb-17" value="" style="endArrow=classic;html=1;dashed=1;dashPattern=1 1;exitX=1;exitY=0.5;exitDx=0;exitDy=0;entryX=0;entryY=0.5;entryDx=0;entryDy=0;" edge="1" parent="OJUNw59y4dNekSy0ZmCq-1" source="vGXIEMNQdJ8kbQFFF9Bb-4" target="vGXIEMNQdJ8kbQFFF9Bb-11">
                    <mxGeometry width="50" height="50" relative="1" as="geometry">
                        <mxPoint x="150" y="890" as="sourcePoint"/>
                        <mxPoint x="200" y="840" as="targetPoint"/>
                      </mxGeometry>
                  </mxCell>
                <mxCell id="vGXIEMNQdJ8kbQFFF9Bb-18" value="" style="endArrow=classic;html=1;dashed=1;dashPattern=1 1;exitX=1;exitY=0.5;exitDx=0;exitDy=0;entryX=0;entryY=0.5;entryDx=0;entryDy=0;" edge="1" parent="OJUNw59y4dNekSy0ZmCq-1" source="vGXIEMNQdJ8kbQFFF9Bb-4" target="vGXIEMNQdJ8kbQFFF9Bb-9">
                    <mxGeometry width="50" height="50" relative="1" as="geometry">
                        <mxPoint x="310" y="705" as="sourcePoint"/>
                        <mxPoint x="150" y="830" as="targetPoint"/>
                      </mxGeometry>
                  </mxCell>
                <mxCell id="vGXIEMNQdJ8kbQFFF9Bb-19" value="" style="endArrow=classic;html=1;dashed=1;dashPattern=1 1;exitX=1;exitY=0.5;exitDx=0;exitDy=0;entryX=0;entryY=0.5;entryDx=0;entryDy=0;" edge="1" parent="OJUNw59y4dNekSy0ZmCq-1" source="vGXIEMNQdJ8kbQFFF9Bb-3" target="vGXIEMNQdJ8kbQFFF9Bb-6">
                    <mxGeometry width="50" height="50" relative="1" as="geometry">
                        <mxPoint x="40" y="440" as="sourcePoint"/>
                        <mxPoint x="90" y="390" as="targetPoint"/>
                      </mxGeometry>
                  </mxCell>
                <mxCell id="vGXIEMNQdJ8kbQFFF9Bb-20" value="" style="endArrow=classic;html=1;exitX=0.5;exitY=1;exitDx=0;exitDy=0;entryX=0.5;entryY=0;entryDx=0;entryDy=0;" edge="1" parent="OJUNw59y4dNekSy0ZmCq-1" source="vGXIEMNQdJ8kbQFFF9Bb-11" target="vGXIEMNQdJ8kbQFFF9Bb-9">
                    <mxGeometry width="50" height="50" relative="1" as="geometry">
                        <mxPoint x="500" y="890" as="sourcePoint"/>
                        <mxPoint x="550" y="840" as="targetPoint"/>
                      </mxGeometry>
                  </mxCell>
                <mxCell id="vGXIEMNQdJ8kbQFFF9Bb-21" value="" style="endArrow=classic;startArrow=classic;html=1;exitX=1;exitY=0.5;exitDx=0;exitDy=0;entryX=1;entryY=0.5;entryDx=0;entryDy=0;" edge="1" parent="OJUNw59y4dNekSy0ZmCq-1" source="vGXIEMNQdJ8kbQFFF9Bb-10" target="vGXIEMNQdJ8kbQFFF9Bb-7">
                    <mxGeometry width="50" height="50" relative="1" as="geometry">
                        <mxPoint x="350" y="910" as="sourcePoint"/>
                        <mxPoint x="400" y="860" as="targetPoint"/>
                        <Array as="points">
                            <mxPoint x="680" y="570"/>
                          </Array>
                      </mxGeometry>
                  </mxCell>
                <mxCell id="vGXIEMNQdJ8kbQFFF9Bb-22" value="yt-data-source + spyt" style="rounded=0;whiteSpace=wrap;html=1;align=left;fillColor=#d5e8d4;strokeColor=#82b366;dashed=1;" vertex="1" parent="OJUNw59y4dNekSy0ZmCq-1">
                    <mxGeometry x="350" y="470" width="220" height="30" as="geometry"/>
                  </mxCell>
                <mxCell id="vGXIEMNQdJ8kbQFFF9Bb-23" value="" style="rounded=0;whiteSpace=wrap;html=1;align=left;fillColor=#60a917;strokeColor=#2D7600;fontColor=#ffffff;dashed=1;" vertex="1" parent="OJUNw59y4dNekSy0ZmCq-1">
                    <mxGeometry x="530" y="470" width="40" height="30" as="geometry"/>
                  </mxCell>
                <mxCell id="vGXIEMNQdJ8kbQFFF9Bb-24" value="yt-data-source" style="rounded=0;whiteSpace=wrap;html=1;align=left;fillColor=#d5e8d4;strokeColor=#82b366;dashed=1;" vertex="1" parent="OJUNw59y4dNekSy0ZmCq-1">
                    <mxGeometry x="350" y="595" width="220" height="30" as="geometry"/>
                  </mxCell>
                <mxCell id="vGXIEMNQdJ8kbQFFF9Bb-25" value="" style="rounded=0;whiteSpace=wrap;html=1;align=left;fillColor=#60a917;strokeColor=#2D7600;fontColor=#ffffff;dashed=1;" vertex="1" parent="OJUNw59y4dNekSy0ZmCq-1">
                    <mxGeometry x="530" y="595" width="40" height="30" as="geometry"/>
                  </mxCell>
                <mxCell id="vGXIEMNQdJ8kbQFFF9Bb-26" value="" style="endArrow=classic;startArrow=classic;html=1;exitX=0.5;exitY=1;exitDx=0;exitDy=0;entryX=0.5;entryY=0;entryDx=0;entryDy=0;" edge="1" parent="OJUNw59y4dNekSy0ZmCq-1" source="vGXIEMNQdJ8kbQFFF9Bb-23" target="vGXIEMNQdJ8kbQFFF9Bb-25">
                    <mxGeometry width="50" height="50" relative="1" as="geometry">
                        <mxPoint x="320" y="840" as="sourcePoint"/>
                        <mxPoint x="370" y="790" as="targetPoint"/>
                      </mxGeometry>
                  </mxCell>
                <mxCell id="vGXIEMNQdJ8kbQFFF9Bb-27" value="" style="endArrow=classic;html=1;exitX=0.5;exitY=0;exitDx=0;exitDy=0;entryX=0.5;entryY=1;entryDx=0;entryDy=0;" edge="1" parent="OJUNw59y4dNekSy0ZmCq-1" source="vGXIEMNQdJ8kbQFFF9Bb-11" target="vGXIEMNQdJ8kbQFFF9Bb-24">
                    <mxGeometry width="50" height="50" relative="1" as="geometry">
                        <mxPoint x="180" y="640" as="sourcePoint"/>
                        <mxPoint x="230" y="590" as="targetPoint"/>
                      </mxGeometry>
                  </mxCell>
              </root>
          </mxGraphModel>
      </diagram>
  <diagram id="KaH4YYHKtH7Td1UqkdYU" name="Page-3">
        <mxGraphModel dx="1186" dy="-321" grid="1" gridSize="10" guides="1" tooltips="1" connect="1" arrows="1" fold="1" page="1" pageScale="1" pageWidth="850" pageHeight="1100" math="0" shadow="0">
            <root>
                <mxCell id="zFMeWg2KUPXo8dQSNGKP-0"/>
                <mxCell id="zFMeWg2KUPXo8dQSNGKP-1" parent="zFMeWg2KUPXo8dQSNGKP-0"/>
                <mxCell id="33n7GxGxEIca2lyUudKy-0" value="&amp;nbsp;jupyter.yandex-team.ru" style="rounded=0;whiteSpace=wrap;html=1;verticalAlign=top;align=left;fillColor=#f5f5f5;strokeColor=#666666;fontColor=#333333;" vertex="1" parent="zFMeWg2KUPXo8dQSNGKP-1">
                    <mxGeometry x="300" y="1330" width="260" height="180" as="geometry"/>
                  </mxCell>
                <mxCell id="33n7GxGxEIca2lyUudKy-1" value="&amp;nbsp;YT Vanilla" style="rounded=0;whiteSpace=wrap;html=1;verticalAlign=top;align=left;fillColor=#f5f5f5;strokeColor=#666666;fontColor=#333333;" vertex="1" parent="zFMeWg2KUPXo8dQSNGKP-1">
                    <mxGeometry x="300" y="1150" width="260" height="150" as="geometry"/>
                  </mxCell>
                <mxCell id="33n7GxGxEIca2lyUudKy-2" value="&amp;nbsp;YT Storage" style="rounded=0;whiteSpace=wrap;html=1;align=left;verticalAlign=top;" vertex="1" parent="zFMeWg2KUPXo8dQSNGKP-1">
                    <mxGeometry x="110" y="1150" width="160" height="180" as="geometry"/>
                  </mxCell>
                <mxCell id="33n7GxGxEIca2lyUudKy-3" value="spark.tgz" style="rounded=0;whiteSpace=wrap;html=1;align=left;fillColor=#dae8fc;strokeColor=#6c8ebf;" vertex="1" parent="zFMeWg2KUPXo8dQSNGKP-1">
                    <mxGeometry x="120" y="1190" width="120" height="30" as="geometry"/>
                  </mxCell>
                <mxCell id="33n7GxGxEIca2lyUudKy-4" value="pypi.yandex-team.ru" style="rounded=0;whiteSpace=wrap;html=1;align=left;" vertex="1" parent="zFMeWg2KUPXo8dQSNGKP-1">
                    <mxGeometry x="110" y="1420" width="160" height="50" as="geometry"/>
                  </mxCell>
                <mxCell id="33n7GxGxEIca2lyUudKy-5" value="" style="group;fillColor=#60a917;strokeColor=#2D7600;fontColor=#ffffff;" vertex="1" connectable="0" parent="zFMeWg2KUPXo8dQSNGKP-1">
                    <mxGeometry x="310" y="1190" width="220" height="30" as="geometry"/>
                  </mxCell>
                <mxCell id="33n7GxGxEIca2lyUudKy-6" value="spark" style="rounded=0;whiteSpace=wrap;html=1;align=left;fillColor=#d5e8d4;strokeColor=#82b366;" vertex="1" parent="33n7GxGxEIca2lyUudKy-5">
                    <mxGeometry width="220" height="30" as="geometry"/>
                  </mxCell>
                <mxCell id="33n7GxGxEIca2lyUudKy-7" value="" style="rounded=0;whiteSpace=wrap;html=1;align=left;fillColor=#60a917;strokeColor=#2D7600;fontColor=#ffffff;" vertex="1" parent="33n7GxGxEIca2lyUudKy-5">
                    <mxGeometry x="180" width="40" height="30" as="geometry"/>
                  </mxCell>
                <mxCell id="33n7GxGxEIca2lyUudKy-8" value="" style="group;fillColor=#ffe6cc;strokeColor=#d79b00;" vertex="1" connectable="0" parent="zFMeWg2KUPXo8dQSNGKP-1">
                    <mxGeometry x="310" y="1460" width="220" height="30" as="geometry"/>
                  </mxCell>
                <mxCell id="33n7GxGxEIca2lyUudKy-9" value="yandex-spyt" style="rounded=0;whiteSpace=wrap;html=1;align=left;fillColor=#ffe6cc;strokeColor=#d79b00;" vertex="1" parent="zFMeWg2KUPXo8dQSNGKP-1">
                    <mxGeometry x="310" y="1410" width="220" height="30" as="geometry"/>
                  </mxCell>
                <mxCell id="33n7GxGxEIca2lyUudKy-10" value="" style="group" vertex="1" connectable="0" parent="zFMeWg2KUPXo8dQSNGKP-1">
                    <mxGeometry x="120" y="1250" width="120" height="60" as="geometry"/>
                  </mxCell>
                <mxCell id="33n7GxGxEIca2lyUudKy-11" value="yt-data-source.jar" style="rounded=0;whiteSpace=wrap;html=1;align=left;fillColor=#dae8fc;strokeColor=#6c8ebf;" vertex="1" parent="33n7GxGxEIca2lyUudKy-10">
                    <mxGeometry width="120" height="30" as="geometry"/>
                  </mxCell>
                <mxCell id="33n7GxGxEIca2lyUudKy-12" value="spyt.zip" style="rounded=0;whiteSpace=wrap;html=1;align=left;fillColor=#dae8fc;strokeColor=#6c8ebf;" vertex="1" parent="33n7GxGxEIca2lyUudKy-10">
                    <mxGeometry y="30" width="120" height="30" as="geometry"/>
                  </mxCell>
                <mxCell id="33n7GxGxEIca2lyUudKy-13" value="" style="endArrow=classic;html=1;exitX=1;exitY=1;exitDx=0;exitDy=0;entryX=0;entryY=0.5;entryDx=0;entryDy=0;dashed=1;dashPattern=1 1;" edge="1" parent="zFMeWg2KUPXo8dQSNGKP-1" source="33n7GxGxEIca2lyUudKy-11" target="33n7GxGxEIca2lyUudKy-22">
                    <mxGeometry width="50" height="50" relative="1" as="geometry">
                        <mxPoint x="150" y="1570" as="sourcePoint"/>
                        <mxPoint x="200" y="1520" as="targetPoint"/>
                      </mxGeometry>
                  </mxCell>
                <mxCell id="33n7GxGxEIca2lyUudKy-14" value="" style="endArrow=classic;html=1;dashed=1;dashPattern=1 1;exitX=1;exitY=0;exitDx=0;exitDy=0;entryX=0;entryY=0.5;entryDx=0;entryDy=0;" edge="1" parent="zFMeWg2KUPXo8dQSNGKP-1" source="33n7GxGxEIca2lyUudKy-12" target="33n7GxGxEIca2lyUudKy-20">
                    <mxGeometry width="50" height="50" relative="1" as="geometry">
                        <mxPoint x="-10" y="1510" as="sourcePoint"/>
                        <mxPoint x="40" y="1460" as="targetPoint"/>
                      </mxGeometry>
                  </mxCell>
                <mxCell id="33n7GxGxEIca2lyUudKy-15" value="" style="endArrow=classic;html=1;dashed=1;dashPattern=1 1;exitX=1;exitY=0.5;exitDx=0;exitDy=0;entryX=0;entryY=0.5;entryDx=0;entryDy=0;" edge="1" parent="zFMeWg2KUPXo8dQSNGKP-1" source="33n7GxGxEIca2lyUudKy-4" target="33n7GxGxEIca2lyUudKy-9">
                    <mxGeometry width="50" height="50" relative="1" as="geometry">
                        <mxPoint x="110" y="1660" as="sourcePoint"/>
                        <mxPoint x="160" y="1610" as="targetPoint"/>
                      </mxGeometry>
                  </mxCell>
                <mxCell id="33n7GxGxEIca2lyUudKy-16" value="" style="endArrow=classic;html=1;dashed=1;dashPattern=1 1;exitX=1;exitY=0.5;exitDx=0;exitDy=0;entryX=0;entryY=0.5;entryDx=0;entryDy=0;" edge="1" parent="zFMeWg2KUPXo8dQSNGKP-1" source="33n7GxGxEIca2lyUudKy-4" target="33n7GxGxEIca2lyUudKy-26">
                    <mxGeometry width="50" height="50" relative="1" as="geometry">
                        <mxPoint x="270" y="1475" as="sourcePoint"/>
                        <mxPoint x="110" y="1600" as="targetPoint"/>
                      </mxGeometry>
                  </mxCell>
                <mxCell id="33n7GxGxEIca2lyUudKy-17" value="" style="endArrow=classic;html=1;dashed=1;dashPattern=1 1;exitX=1;exitY=0.5;exitDx=0;exitDy=0;entryX=0;entryY=0.5;entryDx=0;entryDy=0;" edge="1" parent="zFMeWg2KUPXo8dQSNGKP-1" source="33n7GxGxEIca2lyUudKy-3" target="33n7GxGxEIca2lyUudKy-6">
                    <mxGeometry width="50" height="50" relative="1" as="geometry">
                        <mxPoint y="1210" as="sourcePoint"/>
                        <mxPoint x="50" y="1160" as="targetPoint"/>
                      </mxGeometry>
                  </mxCell>
                <mxCell id="33n7GxGxEIca2lyUudKy-18" value="" style="endArrow=classic;html=1;exitX=0.5;exitY=1;exitDx=0;exitDy=0;entryX=0.5;entryY=0;entryDx=0;entryDy=0;" edge="1" parent="zFMeWg2KUPXo8dQSNGKP-1" source="33n7GxGxEIca2lyUudKy-9" target="33n7GxGxEIca2lyUudKy-26">
                    <mxGeometry width="50" height="50" relative="1" as="geometry">
                        <mxPoint x="460" y="1660" as="sourcePoint"/>
                        <mxPoint x="510" y="1610" as="targetPoint"/>
                      </mxGeometry>
                  </mxCell>
                <mxCell id="33n7GxGxEIca2lyUudKy-19" value="" style="endArrow=classic;startArrow=classic;html=1;exitX=1;exitY=0.5;exitDx=0;exitDy=0;entryX=1;entryY=0.5;entryDx=0;entryDy=0;" edge="1" parent="zFMeWg2KUPXo8dQSNGKP-1" source="33n7GxGxEIca2lyUudKy-27" target="33n7GxGxEIca2lyUudKy-7">
                    <mxGeometry width="50" height="50" relative="1" as="geometry">
                        <mxPoint x="310" y="1680" as="sourcePoint"/>
                        <mxPoint x="360" y="1630" as="targetPoint"/>
                        <Array as="points">
                            <mxPoint x="640" y="1340"/>
                          </Array>
                      </mxGeometry>
                  </mxCell>
                <mxCell id="33n7GxGxEIca2lyUudKy-20" value="yt-data-source + spyt" style="rounded=0;whiteSpace=wrap;html=1;align=left;fillColor=#ffe6cc;strokeColor=#d79b00;dashed=1;" vertex="1" parent="zFMeWg2KUPXo8dQSNGKP-1">
                    <mxGeometry x="310" y="1240" width="220" height="30" as="geometry"/>
                  </mxCell>
                <mxCell id="33n7GxGxEIca2lyUudKy-21" value="" style="rounded=0;whiteSpace=wrap;html=1;align=left;fillColor=#f0a30a;strokeColor=#BD7000;dashed=1;fontColor=#ffffff;" vertex="1" parent="zFMeWg2KUPXo8dQSNGKP-1">
                    <mxGeometry x="490" y="1240" width="40" height="30" as="geometry"/>
                  </mxCell>
                <mxCell id="33n7GxGxEIca2lyUudKy-22" value="yt-data-source" style="rounded=0;whiteSpace=wrap;html=1;align=left;fillColor=#ffe6cc;strokeColor=#d79b00;dashed=1;" vertex="1" parent="zFMeWg2KUPXo8dQSNGKP-1">
                    <mxGeometry x="310" y="1365" width="220" height="30" as="geometry"/>
                  </mxCell>
                <mxCell id="33n7GxGxEIca2lyUudKy-23" value="" style="rounded=0;whiteSpace=wrap;html=1;align=left;fillColor=#f0a30a;strokeColor=#BD7000;fontColor=#ffffff;dashed=1;" vertex="1" parent="zFMeWg2KUPXo8dQSNGKP-1">
                    <mxGeometry x="490" y="1365" width="40" height="30" as="geometry"/>
                  </mxCell>
                <mxCell id="33n7GxGxEIca2lyUudKy-24" value="" style="endArrow=classic;startArrow=classic;html=1;exitX=0.5;exitY=1;exitDx=0;exitDy=0;entryX=0.5;entryY=0;entryDx=0;entryDy=0;" edge="1" parent="zFMeWg2KUPXo8dQSNGKP-1" source="33n7GxGxEIca2lyUudKy-21" target="33n7GxGxEIca2lyUudKy-23">
                    <mxGeometry width="50" height="50" relative="1" as="geometry">
                        <mxPoint x="280" y="1610" as="sourcePoint"/>
                        <mxPoint x="330" y="1560" as="targetPoint"/>
                      </mxGeometry>
                  </mxCell>
                <mxCell id="33n7GxGxEIca2lyUudKy-25" value="" style="endArrow=classic;html=1;exitX=0.5;exitY=0;exitDx=0;exitDy=0;entryX=0.5;entryY=1;entryDx=0;entryDy=0;" edge="1" parent="zFMeWg2KUPXo8dQSNGKP-1" source="33n7GxGxEIca2lyUudKy-9" target="33n7GxGxEIca2lyUudKy-22">
                    <mxGeometry width="50" height="50" relative="1" as="geometry">
                        <mxPoint x="140" y="1410" as="sourcePoint"/>
                        <mxPoint x="190" y="1360" as="targetPoint"/>
                      </mxGeometry>
                  </mxCell>
                <mxCell id="33n7GxGxEIca2lyUudKy-26" value="pyspark + spark" style="rounded=0;whiteSpace=wrap;html=1;align=left;fillColor=#ffe6cc;strokeColor=#d79b00;" vertex="1" parent="zFMeWg2KUPXo8dQSNGKP-1">
                    <mxGeometry x="310" y="1460" width="220" height="30" as="geometry"/>
                  </mxCell>
                <mxCell id="33n7GxGxEIca2lyUudKy-27" value="" style="rounded=0;whiteSpace=wrap;html=1;align=left;fillColor=#60a917;strokeColor=#2D7600;fontColor=#ffffff;" vertex="1" parent="zFMeWg2KUPXo8dQSNGKP-1">
                    <mxGeometry x="490" y="1460" width="40" height="30" as="geometry"/>
                  </mxCell>
              </root>
          </mxGraphModel>
      </diagram>
  <diagram id="FC-dONofiLEZjfRgC2i9" name="Page-4">
        <mxGraphModel dx="1186" dy="779" grid="1" gridSize="10" guides="1" tooltips="1" connect="1" arrows="1" fold="1" page="1" pageScale="1" pageWidth="850" pageHeight="1100" math="0" shadow="0">
            <root>
                <mxCell id="pqpbK4uyJ5cJW77nhSWS-0"/>
                <mxCell id="pqpbK4uyJ5cJW77nhSWS-1" parent="pqpbK4uyJ5cJW77nhSWS-0"/>
                <mxCell id="pqpbK4uyJ5cJW77nhSWS-2" value="" style="group" vertex="1" connectable="0" parent="pqpbK4uyJ5cJW77nhSWS-1">
                    <mxGeometry y="10" width="180" height="310" as="geometry"/>
                  </mxCell>
                <mxCell id="pqpbK4uyJ5cJW77nhSWS-3" value="" style="rounded=0;whiteSpace=wrap;html=1;fillColor=#d5e8d4;strokeColor=#82b366;" vertex="1" parent="pqpbK4uyJ5cJW77nhSWS-2">
                    <mxGeometry width="180" height="310" as="geometry"/>
                  </mxCell>
                <mxCell id="pqpbK4uyJ5cJW77nhSWS-4" value="&lt;div&gt;cluster&lt;/div&gt;&lt;div&gt;v 0.1.x&lt;br&gt;&lt;/div&gt;" style="rounded=0;whiteSpace=wrap;html=1;" vertex="1" parent="pqpbK4uyJ5cJW77nhSWS-2">
                    <mxGeometry x="22.5" y="10" width="135" height="60" as="geometry"/>
                  </mxCell>
                <mxCell id="pqpbK4uyJ5cJW77nhSWS-5" value="&lt;div&gt;yandex-spyt&lt;br&gt;&lt;/div&gt;&lt;div&gt;v 0.1.y&lt;/div&gt;" style="rounded=0;whiteSpace=wrap;html=1;" vertex="1" parent="pqpbK4uyJ5cJW77nhSWS-2">
                    <mxGeometry x="22.5" y="85" width="135" height="55" as="geometry"/>
                  </mxCell>
                <mxCell id="pqpbK4uyJ5cJW77nhSWS-6" value="pyspark&lt;div&gt;v 2.4.4.post0.1.Z-yandex&lt;br&gt;&lt;/div&gt;" style="rounded=0;whiteSpace=wrap;html=1;verticalAlign=top;" vertex="1" parent="pqpbK4uyJ5cJW77nhSWS-2">
                    <mxGeometry x="22.5" y="195" width="135" height="95" as="geometry"/>
                  </mxCell>
                <mxCell id="pqpbK4uyJ5cJW77nhSWS-7" value="&lt;div&gt;yt-data-source&lt;/div&gt;&lt;div&gt;v 0.1.y&lt;/div&gt;" style="rounded=0;whiteSpace=wrap;html=1;" vertex="1" parent="pqpbK4uyJ5cJW77nhSWS-2">
                    <mxGeometry x="22.5" y="140" width="135" height="55" as="geometry"/>
                  </mxCell>
                <mxCell id="pqpbK4uyJ5cJW77nhSWS-8" value="&lt;div&gt;spark-jars&lt;/div&gt;&lt;div&gt;v 0.1.z&lt;br&gt;&lt;/div&gt;" style="rounded=0;whiteSpace=wrap;html=1;" vertex="1" parent="pqpbK4uyJ5cJW77nhSWS-2">
                    <mxGeometry x="28.125" y="240" width="123.75" height="40" as="geometry"/>
                  </mxCell>
                <mxCell id="pqpbK4uyJ5cJW77nhSWS-9" value="" style="group" vertex="1" connectable="0" parent="pqpbK4uyJ5cJW77nhSWS-1">
                    <mxGeometry x="200" y="10" width="180" height="310" as="geometry"/>
                  </mxCell>
                <mxCell id="pqpbK4uyJ5cJW77nhSWS-10" value="" style="rounded=0;whiteSpace=wrap;html=1;fillColor=#d5e8d4;strokeColor=#82b366;" vertex="1" parent="pqpbK4uyJ5cJW77nhSWS-9">
                    <mxGeometry width="180" height="310" as="geometry"/>
                  </mxCell>
                <mxCell id="pqpbK4uyJ5cJW77nhSWS-11" value="&lt;div&gt;cluster&lt;/div&gt;&lt;div&gt;v 0.1.&lt;font color=&quot;#009900&quot;&gt;1&lt;/font&gt;&lt;br&gt;&lt;/div&gt;" style="rounded=0;whiteSpace=wrap;html=1;" vertex="1" parent="pqpbK4uyJ5cJW77nhSWS-9">
                    <mxGeometry x="22.5" y="10" width="135" height="60" as="geometry"/>
                  </mxCell>
                <mxCell id="pqpbK4uyJ5cJW77nhSWS-12" value="&lt;div&gt;yandex-spyt&lt;br&gt;&lt;/div&gt;&lt;div&gt;v 0.1.&lt;font color=&quot;#009900&quot;&gt;3&lt;/font&gt;&lt;/div&gt;" style="rounded=0;whiteSpace=wrap;html=1;" vertex="1" parent="pqpbK4uyJ5cJW77nhSWS-9">
                    <mxGeometry x="22.5" y="85" width="135" height="55" as="geometry"/>
                  </mxCell>
                <mxCell id="pqpbK4uyJ5cJW77nhSWS-13" value="pyspark&lt;div&gt;v 2.4.4.post0.1.&lt;font color=&quot;#009900&quot;&gt;2&lt;/font&gt;-yandex&lt;br&gt;&lt;/div&gt;" style="rounded=0;whiteSpace=wrap;html=1;verticalAlign=top;" vertex="1" parent="pqpbK4uyJ5cJW77nhSWS-9">
                    <mxGeometry x="22.5" y="195" width="135" height="95" as="geometry"/>
                  </mxCell>
                <mxCell id="pqpbK4uyJ5cJW77nhSWS-14" value="&lt;div&gt;yt-data-source&lt;/div&gt;&lt;div&gt;v 0.1.&lt;font color=&quot;#009900&quot;&gt;3&lt;/font&gt;&lt;/div&gt;" style="rounded=0;whiteSpace=wrap;html=1;" vertex="1" parent="pqpbK4uyJ5cJW77nhSWS-9">
                    <mxGeometry x="22.5" y="140" width="135" height="55" as="geometry"/>
                  </mxCell>
                <mxCell id="pqpbK4uyJ5cJW77nhSWS-15" value="&lt;div&gt;spark-jars&lt;/div&gt;&lt;div&gt;v 0.1.&lt;font color=&quot;#009900&quot;&gt;2&lt;/font&gt;&lt;br&gt;&lt;/div&gt;" style="rounded=0;whiteSpace=wrap;html=1;" vertex="1" parent="pqpbK4uyJ5cJW77nhSWS-9">
                    <mxGeometry x="28.125" y="240" width="123.75" height="40" as="geometry"/>
                  </mxCell>
              </root>
          </mxGraphModel>
      </diagram>
  <diagram id="jObz_3DBCDXyn3cdev4v" name="Page-5">
        <mxGraphModel dx="1186" dy="779" grid="1" gridSize="10" guides="1" tooltips="1" connect="1" arrows="1" fold="1" page="1" pageScale="1" pageWidth="850" pageHeight="1100" math="0" shadow="0">
            <root>
                <mxCell id="Llut1UxC93e732Cp7n7d-0"/>
                <mxCell id="Llut1UxC93e732Cp7n7d-1" parent="Llut1UxC93e732Cp7n7d-0"/>
                <mxCell id="Llut1UxC93e732Cp7n7d-2" value="" style="group" vertex="1" connectable="0" parent="Llut1UxC93e732Cp7n7d-1">
                    <mxGeometry x="560" y="10" width="180" height="310" as="geometry"/>
                  </mxCell>
                <mxCell id="Llut1UxC93e732Cp7n7d-3" value="" style="rounded=0;whiteSpace=wrap;html=1;fillColor=#d5e8d4;strokeColor=#82b366;" vertex="1" parent="Llut1UxC93e732Cp7n7d-2">
                    <mxGeometry width="180" height="310" as="geometry"/>
                  </mxCell>
                <mxCell id="Llut1UxC93e732Cp7n7d-4" value="&lt;div&gt;cluster&lt;/div&gt;&lt;div&gt;v 0.&lt;font color=&quot;#009900&quot;&gt;2&lt;/font&gt;.0&lt;br&gt;&lt;/div&gt;" style="rounded=0;whiteSpace=wrap;html=1;" vertex="1" parent="Llut1UxC93e732Cp7n7d-2">
                    <mxGeometry x="22.5" y="10" width="135" height="60" as="geometry"/>
                  </mxCell>
                <mxCell id="Llut1UxC93e732Cp7n7d-5" value="&lt;div&gt;yandex-spyt&lt;br&gt;&lt;/div&gt;&lt;div&gt;v 0.1.3&lt;/div&gt;" style="rounded=0;whiteSpace=wrap;html=1;" vertex="1" parent="Llut1UxC93e732Cp7n7d-2">
                    <mxGeometry x="22.5" y="85" width="135" height="55" as="geometry"/>
                  </mxCell>
                <mxCell id="Llut1UxC93e732Cp7n7d-6" value="pyspark&lt;div&gt;v 2.4.4.post0.1.2-yandex&lt;br&gt;&lt;/div&gt;" style="rounded=0;whiteSpace=wrap;html=1;verticalAlign=top;" vertex="1" parent="Llut1UxC93e732Cp7n7d-2">
                    <mxGeometry x="22.5" y="195" width="135" height="95" as="geometry"/>
                  </mxCell>
                <mxCell id="Llut1UxC93e732Cp7n7d-7" value="&lt;div&gt;yt-data-source&lt;/div&gt;&lt;div&gt;v 0.1.3&lt;/div&gt;" style="rounded=0;whiteSpace=wrap;html=1;" vertex="1" parent="Llut1UxC93e732Cp7n7d-2">
                    <mxGeometry x="22.5" y="140" width="135" height="55" as="geometry"/>
                  </mxCell>
                <mxCell id="Llut1UxC93e732Cp7n7d-8" value="&lt;div&gt;spark-jars&lt;/div&gt;&lt;div&gt;v 0.1.2&lt;br&gt;&lt;/div&gt;" style="rounded=0;whiteSpace=wrap;html=1;" vertex="1" parent="Llut1UxC93e732Cp7n7d-2">
                    <mxGeometry x="28.125" y="240" width="123.75" height="40" as="geometry"/>
                  </mxCell>
                <mxCell id="Llut1UxC93e732Cp7n7d-9" value="" style="group" vertex="1" connectable="0" parent="Llut1UxC93e732Cp7n7d-1">
                    <mxGeometry x="760" y="10" width="180" height="310" as="geometry"/>
                  </mxCell>
                <mxCell id="Llut1UxC93e732Cp7n7d-10" value="" style="rounded=0;whiteSpace=wrap;html=1;fillColor=#d5e8d4;strokeColor=#82b366;" vertex="1" parent="Llut1UxC93e732Cp7n7d-9">
                    <mxGeometry width="180" height="310" as="geometry"/>
                  </mxCell>
                <mxCell id="Llut1UxC93e732Cp7n7d-11" value="&lt;div&gt;cluster&lt;/div&gt;&lt;div&gt;v 0.&lt;font color=&quot;#009900&quot;&gt;2&lt;/font&gt;.0&lt;br&gt;&lt;/div&gt;" style="rounded=0;whiteSpace=wrap;html=1;" vertex="1" parent="Llut1UxC93e732Cp7n7d-9">
                    <mxGeometry x="22.5" y="10" width="135" height="60" as="geometry"/>
                  </mxCell>
                <mxCell id="Llut1UxC93e732Cp7n7d-12" value="&lt;div&gt;yandex-spyt&lt;br&gt;&lt;/div&gt;&lt;div&gt;v 0.&lt;font color=&quot;#009900&quot;&gt;2&lt;/font&gt;.0&lt;/div&gt;" style="rounded=0;whiteSpace=wrap;html=1;" vertex="1" parent="Llut1UxC93e732Cp7n7d-9">
                    <mxGeometry x="22.5" y="85" width="135" height="55" as="geometry"/>
                  </mxCell>
                <mxCell id="Llut1UxC93e732Cp7n7d-13" value="pyspark&lt;div&gt;v 2.4.4.post0.&lt;font color=&quot;#009900&quot;&gt;2&lt;/font&gt;.0-yandex&lt;br&gt;&lt;/div&gt;" style="rounded=0;whiteSpace=wrap;html=1;verticalAlign=top;" vertex="1" parent="Llut1UxC93e732Cp7n7d-9">
                    <mxGeometry x="22.5" y="195" width="135" height="95" as="geometry"/>
                  </mxCell>
                <mxCell id="Llut1UxC93e732Cp7n7d-14" value="&lt;div&gt;yt-data-source&lt;/div&gt;&lt;div&gt;v 0.&lt;font color=&quot;#009900&quot;&gt;2&lt;/font&gt;.0&lt;/div&gt;" style="rounded=0;whiteSpace=wrap;html=1;" vertex="1" parent="Llut1UxC93e732Cp7n7d-9">
                    <mxGeometry x="22.5" y="140" width="135" height="55" as="geometry"/>
                  </mxCell>
                <mxCell id="Llut1UxC93e732Cp7n7d-15" value="&lt;div&gt;spark-jars&lt;/div&gt;&lt;div&gt;v 0.&lt;font color=&quot;#009900&quot;&gt;2&lt;/font&gt;.0&lt;br&gt;&lt;/div&gt;" style="rounded=0;whiteSpace=wrap;html=1;" vertex="1" parent="Llut1UxC93e732Cp7n7d-9">
                    <mxGeometry x="28.125" y="240" width="123.75" height="40" as="geometry"/>
                  </mxCell>
                <mxCell id="Llut1UxC93e732Cp7n7d-16" value="" style="group;fillColor=#ffe6cc;strokeColor=#d79b00;" vertex="1" connectable="0" parent="Llut1UxC93e732Cp7n7d-1">
                    <mxGeometry x="960" y="10" width="180" height="310" as="geometry"/>
                  </mxCell>
                <mxCell id="Llut1UxC93e732Cp7n7d-17" value="" style="rounded=0;whiteSpace=wrap;html=1;fillColor=#ffe6cc;strokeColor=#d79b00;" vertex="1" parent="Llut1UxC93e732Cp7n7d-16">
                    <mxGeometry width="180" height="310" as="geometry"/>
                  </mxCell>
                <mxCell id="Llut1UxC93e732Cp7n7d-18" value="&lt;div&gt;cluster&lt;/div&gt;&lt;div&gt;v 0.&lt;font color=&quot;#990000&quot;&gt;1&lt;/font&gt;.0&lt;br&gt;&lt;/div&gt;" style="rounded=0;whiteSpace=wrap;html=1;" vertex="1" parent="Llut1UxC93e732Cp7n7d-16">
                    <mxGeometry x="22.5" y="10" width="135" height="60" as="geometry"/>
                  </mxCell>
                <mxCell id="Llut1UxC93e732Cp7n7d-19" value="&lt;div&gt;yandex-spyt&lt;br&gt;&lt;/div&gt;&lt;div&gt;v 0.&lt;font color=&quot;#990000&quot;&gt;2&lt;/font&gt;.0&lt;/div&gt;" style="rounded=0;whiteSpace=wrap;html=1;" vertex="1" parent="Llut1UxC93e732Cp7n7d-16">
                    <mxGeometry x="22.5" y="85" width="135" height="55" as="geometry"/>
                  </mxCell>
                <mxCell id="Llut1UxC93e732Cp7n7d-20" value="pyspark&lt;div&gt;v 2.4.4.post0.&lt;font color=&quot;#990000&quot;&gt;2&lt;/font&gt;.0-yandex&lt;br&gt;&lt;/div&gt;" style="rounded=0;whiteSpace=wrap;html=1;verticalAlign=top;" vertex="1" parent="Llut1UxC93e732Cp7n7d-16">
                    <mxGeometry x="22.5" y="195" width="135" height="95" as="geometry"/>
                  </mxCell>
                <mxCell id="Llut1UxC93e732Cp7n7d-21" value="&lt;div&gt;yt-data-source&lt;/div&gt;&lt;div&gt;v 0.&lt;font color=&quot;#990000&quot;&gt;2&lt;/font&gt;.0&lt;/div&gt;" style="rounded=0;whiteSpace=wrap;html=1;" vertex="1" parent="Llut1UxC93e732Cp7n7d-16">
                    <mxGeometry x="22.5" y="140" width="135" height="55" as="geometry"/>
                  </mxCell>
                <mxCell id="Llut1UxC93e732Cp7n7d-22" value="&lt;div&gt;spark-jars&lt;/div&gt;&lt;div&gt;v 0.&lt;font color=&quot;#990000&quot;&gt;2&lt;/font&gt;.0&lt;br&gt;&lt;/div&gt;" style="rounded=0;whiteSpace=wrap;html=1;" vertex="1" parent="Llut1UxC93e732Cp7n7d-16">
                    <mxGeometry x="28.125" y="240" width="123.75" height="40" as="geometry"/>
                  </mxCell>
              </root>
          </mxGraphModel>
      </diagram>
  <diagram id="aXTP9xAA7pstgIua2G1H" name="Page-6">
    <mxGraphModel dx="1186" dy="779" grid="1" gridSize="10" guides="1" tooltips="1" connect="1" arrows="1" fold="1" page="1" pageScale="1" pageWidth="850" pageHeight="1100" math="0" shadow="0">
      <root>
        <mxCell id="ZvhxGrxhvDg3EYF4742w-0"/>
        <mxCell id="ZvhxGrxhvDg3EYF4742w-1" parent="ZvhxGrxhvDg3EYF4742w-0"/>
        <mxCell id="ZvhxGrxhvDg3EYF4742w-3" value="" style="rounded=0;whiteSpace=wrap;html=1;fillColor=#d5e8d4;strokeColor=#82b366;" vertex="1" parent="ZvhxGrxhvDg3EYF4742w-1">
          <mxGeometry y="10" width="180" height="160" as="geometry"/>
        </mxCell>
        <mxCell id="ZvhxGrxhvDg3EYF4742w-4" value="&lt;div&gt;cluster&lt;/div&gt;&lt;div&gt;v 0.1.x&lt;br&gt;&lt;/div&gt;" style="rounded=0;whiteSpace=wrap;html=1;" vertex="1" parent="ZvhxGrxhvDg3EYF4742w-1">
          <mxGeometry x="22.5" y="20" width="135" height="60" as="geometry"/>
        </mxCell>
        <mxCell id="ZvhxGrxhvDg3EYF4742w-5" value="&lt;div&gt;yandex-spyt&lt;br&gt;&lt;/div&gt;&lt;div&gt;v 0.1.y&lt;/div&gt;" style="rounded=0;whiteSpace=wrap;html=1;" vertex="1" parent="ZvhxGrxhvDg3EYF4742w-1">
          <mxGeometry x="22.5" y="95" width="135" height="55" as="geometry"/>
        </mxCell>
        <mxCell id="ZvhxGrxhvDg3EYF4742w-10" value="" style="rounded=0;whiteSpace=wrap;html=1;fillColor=#d5e8d4;strokeColor=#82b366;" vertex="1" parent="ZvhxGrxhvDg3EYF4742w-1">
          <mxGeometry x="200" y="10" width="180" height="160" as="geometry"/>
        </mxCell>
        <mxCell id="ZvhxGrxhvDg3EYF4742w-11" value="&lt;div&gt;cluster&lt;/div&gt;&lt;div&gt;v 0.1.&lt;font color=&quot;#009900&quot;&gt;1&lt;/font&gt;&lt;br&gt;&lt;/div&gt;" style="rounded=0;whiteSpace=wrap;html=1;" vertex="1" parent="ZvhxGrxhvDg3EYF4742w-1">
          <mxGeometry x="222.5" y="20" width="135" height="60" as="geometry"/>
        </mxCell>
        <mxCell id="ZvhxGrxhvDg3EYF4742w-12" value="&lt;div&gt;yandex-spyt&lt;br&gt;&lt;/div&gt;&lt;div&gt;v 0.1.&lt;font color=&quot;#009900&quot;&gt;3&lt;/font&gt;&lt;/div&gt;" style="rounded=0;whiteSpace=wrap;html=1;" vertex="1" parent="ZvhxGrxhvDg3EYF4742w-1">
          <mxGeometry x="222.5" y="95" width="135" height="55" as="geometry"/>
        </mxCell>
      </root>
    </mxGraphModel>
  </diagram>
  <diagram id="ktIZn8sX20a8nMcMRhik" name="Page-7">
    <mxGraphModel dx="1186" dy="779" grid="1" gridSize="10" guides="1" tooltips="1" connect="1" arrows="1" fold="1" page="1" pageScale="1" pageWidth="850" pageHeight="1100" math="0" shadow="0">
      <root>
        <mxCell id="REWZdDkAprfjYqIPicc1-0"/>
        <mxCell id="REWZdDkAprfjYqIPicc1-1" parent="REWZdDkAprfjYqIPicc1-0"/>
        <mxCell id="REWZdDkAprfjYqIPicc1-16" value="" style="group;fillColor=#ffe6cc;strokeColor=#d79b00;" vertex="1" connectable="0" parent="REWZdDkAprfjYqIPicc1-1">
          <mxGeometry x="960" y="10" width="180" height="160" as="geometry"/>
        </mxCell>
        <mxCell id="REWZdDkAprfjYqIPicc1-3" value="" style="rounded=0;whiteSpace=wrap;html=1;fillColor=#d5e8d4;strokeColor=#82b366;" vertex="1" parent="REWZdDkAprfjYqIPicc1-1">
          <mxGeometry x="560" y="10" width="180" height="160" as="geometry"/>
        </mxCell>
        <mxCell id="REWZdDkAprfjYqIPicc1-4" value="&lt;div&gt;cluster&lt;/div&gt;&lt;div&gt;v 0.&lt;font color=&quot;#009900&quot;&gt;2&lt;/font&gt;.0&lt;br&gt;&lt;/div&gt;" style="rounded=0;whiteSpace=wrap;html=1;" vertex="1" parent="REWZdDkAprfjYqIPicc1-1">
          <mxGeometry x="582.5" y="20" width="135" height="60" as="geometry"/>
        </mxCell>
        <mxCell id="REWZdDkAprfjYqIPicc1-5" value="&lt;div&gt;yandex-spyt&lt;br&gt;&lt;/div&gt;&lt;div&gt;v 0.1.3&lt;/div&gt;" style="rounded=0;whiteSpace=wrap;html=1;" vertex="1" parent="REWZdDkAprfjYqIPicc1-1">
          <mxGeometry x="582.5" y="95" width="135" height="55" as="geometry"/>
        </mxCell>
        <mxCell id="REWZdDkAprfjYqIPicc1-10" value="" style="rounded=0;whiteSpace=wrap;html=1;fillColor=#d5e8d4;strokeColor=#82b366;" vertex="1" parent="REWZdDkAprfjYqIPicc1-1">
          <mxGeometry x="760" y="10" width="180" height="160" as="geometry"/>
        </mxCell>
        <mxCell id="REWZdDkAprfjYqIPicc1-11" value="&lt;div&gt;cluster&lt;/div&gt;&lt;div&gt;v 0.&lt;font color=&quot;#009900&quot;&gt;2&lt;/font&gt;.0&lt;br&gt;&lt;/div&gt;" style="rounded=0;whiteSpace=wrap;html=1;" vertex="1" parent="REWZdDkAprfjYqIPicc1-1">
          <mxGeometry x="782.5" y="20" width="135" height="60" as="geometry"/>
        </mxCell>
        <mxCell id="REWZdDkAprfjYqIPicc1-12" value="&lt;div&gt;yandex-spyt&lt;br&gt;&lt;/div&gt;&lt;div&gt;v 0.&lt;font color=&quot;#009900&quot;&gt;2&lt;/font&gt;.0&lt;/div&gt;" style="rounded=0;whiteSpace=wrap;html=1;" vertex="1" parent="REWZdDkAprfjYqIPicc1-1">
          <mxGeometry x="782.5" y="95" width="135" height="55" as="geometry"/>
        </mxCell>
        <mxCell id="REWZdDkAprfjYqIPicc1-18" value="&lt;div&gt;cluster&lt;/div&gt;&lt;div&gt;v 0.&lt;font color=&quot;#990000&quot;&gt;1&lt;/font&gt;.0&lt;br&gt;&lt;/div&gt;" style="rounded=0;whiteSpace=wrap;html=1;" vertex="1" parent="REWZdDkAprfjYqIPicc1-1">
          <mxGeometry x="982.5" y="20" width="135" height="60" as="geometry"/>
        </mxCell>
        <mxCell id="REWZdDkAprfjYqIPicc1-19" value="&lt;div&gt;yandex-spyt&lt;br&gt;&lt;/div&gt;&lt;div&gt;v 0.&lt;font color=&quot;#990000&quot;&gt;2&lt;/font&gt;.0&lt;/div&gt;" style="rounded=0;whiteSpace=wrap;html=1;" vertex="1" parent="REWZdDkAprfjYqIPicc1-1">
          <mxGeometry x="982.5" y="95" width="135" height="55" as="geometry"/>
        </mxCell>
      </root>
    </mxGraphModel>
  </diagram>
</mxfile>
